ISO-10303-21;
HEADER;
FILE_DESCRIPTION(('FreeCAD Model'),'2;1');
FILE_NAME('Open CASCADE Shape Model','2025-12-14T07:11:52',(''),(''),
  'Open CASCADE STEP processor 7.8','FreeCAD','Unknown');
FILE_SCHEMA(('AUTOMOTIVE_DESIGN { 1 0 10303 214 1 1 1 1 }'));
ENDSEC;
DATA;
#1 = APPLICATION_PROTOCOL_DEFINITION('international standard',
  'automotive_design',2000,#2);
#2 = APPLICATION_CONTEXT(
  'core data for automotive mechanical design processes');
#3 = SHAPE_DEFINITION_REPRESENTATION(#4,#10);
#4 = PRODUCT_DEFINITION_SHAPE('','',#5);
#5 = PRODUCT_DEFINITION('design','',#6,#9);
#6 = PRODUCT_DEFINITION_FORMATION('','',#7);
#7 = PRODUCT('Motor Mount Part','Motor Mount Part','',(#8));
#8 = PRODUCT_CONTEXT('',#2,'mechanical');
#9 = PRODUCT_DEFINITION_CONTEXT('part definition',#2,'design');
#10 = ADVANCED_BREP_SHAPE_REPRESENTATION('',(#11,#15),#1779);
#11 = AXIS2_PLACEMENT_3D('',#12,#13,#14);
#12 = CARTESIAN_POINT('',(0.,0.,0.));
#13 = DIRECTION('',(0.,0.,1.));
#14 = DIRECTION('',(1.,0.,-0.));
#15 = MANIFOLD_SOLID_BREP('',#16);
#16 = CLOSED_SHELL('',(#17,#67,#114,#146,#215,#246,#263,#287,#318,#351,
    #375,#399,#555,#587,#626,#652,#677,#710,#734,#875,#892,#909,#940,
    #957,#988,#1010,#1035,#1047,#1064,#1089,#1114,#1139,#1164,#1189,
    #1214,#1239,#1271,#1295,#1320,#1353,#1375,#1387,#1399,#1416,#1440,
    #1457,#1481,#1499,#1524,#1549,#1574,#1599,#1624,#1649,#1666,#1683,
    #1695,#1707,#1719,#1731,#1743,#1755,#1767));
#17 = ADVANCED_FACE('',(#18),#62,.T.);
#18 = FACE_BOUND('',#19,.T.);
#19 = EDGE_LOOP('',(#20,#30,#39,#47,#55));
#20 = ORIENTED_EDGE('',*,*,#21,.F.);
#21 = EDGE_CURVE('',#22,#24,#26,.T.);
#22 = VERTEX_POINT('',#23);
#23 = CARTESIAN_POINT('',(-11.,-38.,50.));
#24 = VERTEX_POINT('',#25);
#25 = CARTESIAN_POINT('',(-24.,-38.,50.));
#26 = LINE('',#27,#28);
#27 = CARTESIAN_POINT('',(-1.665111512313E-14,-38.,50.));
#28 = VECTOR('',#29,1.);
#29 = DIRECTION('',(-1.,2.2E-16,-1.110223024625E-16));
#30 = ORIENTED_EDGE('',*,*,#31,.F.);
#31 = EDGE_CURVE('',#32,#22,#34,.T.);
#32 = VERTEX_POINT('',#33);
#33 = CARTESIAN_POINT('',(-11.,-30.,42.));
#34 = CIRCLE('',#35,8.);
#35 = AXIS2_PLACEMENT_3D('',#36,#37,#38);
#36 = CARTESIAN_POINT('',(-11.,-38.,42.));
#37 = DIRECTION('',(1.,1.232595164408E-32,1.110223024625E-16));
#38 = DIRECTION('',(0.,1.,-1.110223024625E-16));
#39 = ORIENTED_EDGE('',*,*,#40,.T.);
#40 = EDGE_CURVE('',#32,#41,#43,.T.);
#41 = VERTEX_POINT('',#42);
#42 = CARTESIAN_POINT('',(-21.,-30.,42.));
#43 = LINE('',#44,#45);
#44 = CARTESIAN_POINT('',(-1.399293670343E-14,-30.,42.));
#45 = VECTOR('',#46,1.);
#46 = DIRECTION('',(-1.,2.2E-16,-1.110223024625E-16));
#47 = ORIENTED_EDGE('',*,*,#48,.T.);
#48 = EDGE_CURVE('',#41,#49,#51,.T.);
#49 = VERTEX_POINT('',#50);
#50 = CARTESIAN_POINT('',(-24.,-30.,42.));
#51 = LINE('',#52,#53);
#52 = CARTESIAN_POINT('',(-1.399293670343E-14,-30.,42.));
#53 = VECTOR('',#54,1.);
#54 = DIRECTION('',(-1.,2.2E-16,-1.110223024625E-16));
#55 = ORIENTED_EDGE('',*,*,#56,.T.);
#56 = EDGE_CURVE('',#49,#24,#57,.T.);
#57 = CIRCLE('',#58,8.);
#58 = AXIS2_PLACEMENT_3D('',#59,#60,#61);
#59 = CARTESIAN_POINT('',(-24.,-38.,42.));
#60 = DIRECTION('',(1.,2.221581032982E-31,2.001022302463E-15));
#61 = DIRECTION('',(-7.103629173742E-30,1.,3.438977697537E-15));
#62 = CYLINDRICAL_SURFACE('',#63,8.);
#63 = AXIS2_PLACEMENT_3D('',#64,#65,#66);
#64 = CARTESIAN_POINT('',(-1.399293670343E-14,-38.,42.));
#65 = DIRECTION('',(1.,3.675085818583E-32,3.310223024625E-16));
#66 = DIRECTION('',(7.282490654175E-32,1.,-3.310223024625E-16));
#67 = ADVANCED_FACE('',(#68),#109,.T.);
#68 = FACE_BOUND('',#69,.T.);
#69 = EDGE_LOOP('',(#70,#80,#86,#87,#95,#103));
#70 = ORIENTED_EDGE('',*,*,#71,.T.);
#71 = EDGE_CURVE('',#72,#74,#76,.T.);
#72 = VERTEX_POINT('',#73);
#73 = CARTESIAN_POINT('',(-1.,-47.24722325026,50.));
#74 = VERTEX_POINT('',#75);
#75 = CARTESIAN_POINT('',(-11.,-47.24722325026,50.));
#76 = LINE('',#77,#78);
#77 = CARTESIAN_POINT('',(4.188848768742E-16,-47.24722325026,50.));
#78 = VECTOR('',#79,1.);
#79 = DIRECTION('',(-1.,2.2E-16,-1.110223024625E-16));
#80 = ORIENTED_EDGE('',*,*,#81,.F.);
#81 = EDGE_CURVE('',#22,#74,#82,.T.);
#82 = LINE('',#83,#84);
#83 = CARTESIAN_POINT('',(-11.,-38.,50.));
#84 = VECTOR('',#85,1.);
#85 = DIRECTION('',(0.,-1.,1.110223024625E-16));
#86 = ORIENTED_EDGE('',*,*,#21,.T.);
#87 = ORIENTED_EDGE('',*,*,#88,.T.);
#88 = EDGE_CURVE('',#24,#89,#91,.T.);
#89 = VERTEX_POINT('',#90);
#90 = CARTESIAN_POINT('',(-24.,-78.,50.));
#91 = LINE('',#92,#93);
#92 = CARTESIAN_POINT('',(-24.,-38.,50.));
#93 = VECTOR('',#94,1.);
#94 = DIRECTION('',(-2.098321516542E-31,-1.,2.001022302463E-15));
#95 = ORIENTED_EDGE('',*,*,#96,.F.);
#96 = EDGE_CURVE('',#97,#89,#99,.T.);
#97 = VERTEX_POINT('',#98);
#98 = CARTESIAN_POINT('',(-1.,-78.,50.));
#99 = LINE('',#100,#101);
#100 = CARTESIAN_POINT('',(-1.665111512313E-14,-78.,50.));
#101 = VECTOR('',#102,1.);
#102 = DIRECTION('',(-1.,2.2E-16,-1.110223024625E-16));
#103 = ORIENTED_EDGE('',*,*,#104,.F.);
#104 = EDGE_CURVE('',#72,#97,#105,.T.);
#105 = LINE('',#106,#107);
#106 = CARTESIAN_POINT('',(-1.,-47.24722325026,50.));
#107 = VECTOR('',#108,1.);
#108 = DIRECTION('',(-2.098321516542E-31,-1.,2.001022302463E-15));
#109 = PLANE('',#110);
#110 = AXIS2_PLACEMENT_3D('',#111,#112,#113);
#111 = CARTESIAN_POINT('',(-1.665111512313E-14,-38.,50.));
#112 = DIRECTION('',(-1.110223024625E-16,3.310223024625E-16,1.));
#113 = DIRECTION('',(-2.442490654175E-32,-1.,3.310223024625E-16));
#114 = ADVANCED_FACE('',(#115),#141,.T.);
#115 = FACE_BOUND('',#116,.T.);
#116 = EDGE_LOOP('',(#117,#125,#134,#140));
#117 = ORIENTED_EDGE('',*,*,#118,.F.);
#118 = EDGE_CURVE('',#119,#49,#121,.T.);
#119 = VERTEX_POINT('',#120);
#120 = CARTESIAN_POINT('',(-25.,-31.,42.));
#121 = LINE('',#122,#123);
#122 = CARTESIAN_POINT('',(-24.5,-30.5,42.));
#123 = VECTOR('',#124,1.);
#124 = DIRECTION('',(0.707106781187,0.707106781187,9.4E-16));
#125 = ORIENTED_EDGE('',*,*,#126,.T.);
#126 = EDGE_CURVE('',#119,#127,#129,.T.);
#127 = VERTEX_POINT('',#128);
#128 = CARTESIAN_POINT('',(-25.,-38.,49.));
#129 = CIRCLE('',#130,7.);
#130 = AXIS2_PLACEMENT_3D('',#131,#132,#133);
#131 = CARTESIAN_POINT('',(-25.,-38.,42.));
#132 = DIRECTION('',(1.,2.221581032982E-31,2.001022302463E-15));
#133 = DIRECTION('',(-7.103629173742E-30,1.,3.438977697537E-15));
#134 = ORIENTED_EDGE('',*,*,#135,.T.);
#135 = EDGE_CURVE('',#127,#24,#136,.T.);
#136 = LINE('',#137,#138);
#137 = CARTESIAN_POINT('',(-24.,-38.,50.));
#138 = VECTOR('',#139,1.);
#139 = DIRECTION('',(0.707106781187,-6.614953770658E-16,0.707106781187)
  );
#140 = ORIENTED_EDGE('',*,*,#56,.F.);
#141 = CONICAL_SURFACE('',#142,8.,0.785398163397);
#142 = AXIS2_PLACEMENT_3D('',#143,#144,#145);
#143 = CARTESIAN_POINT('',(-24.,-38.,42.));
#144 = DIRECTION('',(1.,2.221581032982E-31,2.001022302463E-15));
#145 = DIRECTION('',(-7.103629173742E-30,1.,3.438977697537E-15));
#146 = ADVANCED_FACE('',(#147,#199),#210,.T.);
#147 = FACE_BOUND('',#148,.T.);
#148 = EDGE_LOOP('',(#149,#159,#165,#166,#167,#175,#184,#193));
#149 = ORIENTED_EDGE('',*,*,#150,.F.);
#150 = EDGE_CURVE('',#151,#153,#155,.T.);
#151 = VERTEX_POINT('',#152);
#152 = CARTESIAN_POINT('',(-11.,-29.99999999996,24.99997285121));
#153 = VERTEX_POINT('',#154);
#154 = CARTESIAN_POINT('',(-11.,-30.,18.012003820267));
#155 = LINE('',#156,#157);
#156 = CARTESIAN_POINT('',(-11.,-30.,50.));
#157 = VECTOR('',#158,1.);
#158 = DIRECTION('',(1.781022302463E-15,-1.110223024625E-16,-1.));
#159 = ORIENTED_EDGE('',*,*,#160,.T.);
#160 = EDGE_CURVE('',#151,#32,#161,.T.);
#161 = LINE('',#162,#163);
#162 = CARTESIAN_POINT('',(-11.,-30.,24.99997285121));
#163 = VECTOR('',#164,1.);
#164 = DIRECTION('',(-1.110223024625E-16,1.110223024625E-16,1.));
#165 = ORIENTED_EDGE('',*,*,#31,.T.);
#166 = ORIENTED_EDGE('',*,*,#81,.T.);
#167 = ORIENTED_EDGE('',*,*,#168,.T.);
#168 = EDGE_CURVE('',#74,#169,#171,.T.);
#169 = VERTEX_POINT('',#170);
#170 = CARTESIAN_POINT('',(-11.,-60.52627944162,27.));
#171 = LINE('',#172,#173);
#172 = CARTESIAN_POINT('',(-11.,-47.24722325026,50.));
#173 = VECTOR('',#174,1.);
#174 = DIRECTION('',(9.614813431918E-17,-0.5,-0.866025403784));
#175 = ORIENTED_EDGE('',*,*,#176,.T.);
#176 = EDGE_CURVE('',#169,#177,#179,.T.);
#177 = VERTEX_POINT('',#178);
#178 = CARTESIAN_POINT('',(-11.,-40.,21.5));
#179 = CIRCLE('',#180,11.);
#180 = AXIS2_PLACEMENT_3D('',#181,#182,#183);
#181 = CARTESIAN_POINT('',(-11.,-51.,21.5));
#182 = DIRECTION('',(-1.,4.4E-16,-5.510223024625E-16));
#183 = DIRECTION('',(4.4E-16,1.,-1.001022302463E-15));
#184 = ORIENTED_EDGE('',*,*,#185,.T.);
#185 = EDGE_CURVE('',#177,#186,#188,.T.);
#186 = VERTEX_POINT('',#187);
#187 = CARTESIAN_POINT('',(-11.,-46.93586636774,11.278316292352));
#188 = CIRCLE('',#189,11.);
#189 = AXIS2_PLACEMENT_3D('',#190,#191,#192);
#190 = CARTESIAN_POINT('',(-11.,-51.,21.5));
#191 = DIRECTION('',(-1.,4.4E-16,-5.510223024625E-16));
#192 = DIRECTION('',(4.4E-16,1.,-1.001022302463E-15));
#193 = ORIENTED_EDGE('',*,*,#194,.F.);
#194 = EDGE_CURVE('',#153,#186,#195,.T.);
#195 = LINE('',#196,#197);
#196 = CARTESIAN_POINT('',(-11.,-25.,20.));
#197 = VECTOR('',#198,1.);
#198 = DIRECTION('',(4.101904303344E-17,-0.929243973423,-0.369466693841)
  );
#199 = FACE_BOUND('',#200,.T.);
#200 = EDGE_LOOP('',(#201));
#201 = ORIENTED_EDGE('',*,*,#202,.T.);
#202 = EDGE_CURVE('',#203,#203,#205,.T.);
#203 = VERTEX_POINT('',#204);
#204 = CARTESIAN_POINT('',(-11.,-31.5,37.));
#205 = CIRCLE('',#206,4.);
#206 = AXIS2_PLACEMENT_3D('',#207,#208,#209);
#207 = CARTESIAN_POINT('',(-11.,-35.5,37.));
#208 = DIRECTION('',(-1.,2.2E-16,-1.110223024625E-16));
#209 = DIRECTION('',(2.2E-16,1.,-1.110223024625E-16));
#210 = PLANE('',#211);
#211 = AXIS2_PLACEMENT_3D('',#212,#213,#214);
#212 = CARTESIAN_POINT('',(-11.,-43.23618548081,29.328787055932));
#213 = DIRECTION('',(1.,1.232595164408E-32,1.110223024625E-16));
#214 = DIRECTION('',(-1.110223024625E-16,1.110223024625E-16,1.));
#215 = ADVANCED_FACE('',(#216),#241,.T.);
#216 = FACE_BOUND('',#217,.T.);
#217 = EDGE_LOOP('',(#218,#219,#227,#235));
#218 = ORIENTED_EDGE('',*,*,#48,.F.);
#219 = ORIENTED_EDGE('',*,*,#220,.T.);
#220 = EDGE_CURVE('',#41,#221,#223,.T.);
#221 = VERTEX_POINT('',#222);
#222 = CARTESIAN_POINT('',(-21.,-30.,25.));
#223 = LINE('',#224,#225);
#224 = CARTESIAN_POINT('',(-21.,-30.,50.));
#225 = VECTOR('',#226,1.);
#226 = DIRECTION('',(1.781022302463E-15,-1.110223024625E-16,-1.));
#227 = ORIENTED_EDGE('',*,*,#228,.T.);
#228 = EDGE_CURVE('',#221,#229,#231,.T.);
#229 = VERTEX_POINT('',#230);
#230 = CARTESIAN_POINT('',(-24.,-30.,25.));
#231 = LINE('',#232,#233);
#232 = CARTESIAN_POINT('',(-8.325557561563E-15,-30.,25.));
#233 = VECTOR('',#234,1.);
#234 = DIRECTION('',(-1.,2.2E-16,-1.110223024625E-16));
#235 = ORIENTED_EDGE('',*,*,#236,.T.);
#236 = EDGE_CURVE('',#229,#49,#237,.T.);
#237 = LINE('',#238,#239);
#238 = CARTESIAN_POINT('',(-24.,-30.,25.));
#239 = VECTOR('',#240,1.);
#240 = DIRECTION('',(-2.001022302463E-15,6.710223024625E-16,1.));
#241 = PLANE('',#242);
#242 = AXIS2_PLACEMENT_3D('',#243,#244,#245);
#243 = CARTESIAN_POINT('',(-8.325557561563E-15,-30.,25.));
#244 = DIRECTION('',(2.2E-16,1.,-1.110223024625E-16));
#245 = DIRECTION('',(-3.310223024625E-16,1.110223024625E-16,1.));
#246 = ADVANCED_FACE('',(#247),#258,.T.);
#247 = FACE_BOUND('',#248,.T.);
#248 = EDGE_LOOP('',(#249,#250,#256,#257));
#249 = ORIENTED_EDGE('',*,*,#160,.F.);
#250 = ORIENTED_EDGE('',*,*,#251,.T.);
#251 = EDGE_CURVE('',#151,#221,#252,.T.);
#252 = LINE('',#253,#254);
#253 = CARTESIAN_POINT('',(-8.325557561563E-15,-30.,25.));
#254 = VECTOR('',#255,1.);
#255 = DIRECTION('',(-1.,2.2E-16,-1.110223024625E-16));
#256 = ORIENTED_EDGE('',*,*,#220,.F.);
#257 = ORIENTED_EDGE('',*,*,#40,.F.);
#258 = PLANE('',#259);
#259 = AXIS2_PLACEMENT_3D('',#260,#261,#262);
#260 = CARTESIAN_POINT('',(-8.325557561563E-15,-30.,25.));
#261 = DIRECTION('',(2.2E-16,1.,-1.110223024625E-16));
#262 = DIRECTION('',(-3.310223024625E-16,1.110223024625E-16,1.));
#263 = ADVANCED_FACE('',(#264),#282,.F.);
#264 = FACE_BOUND('',#265,.F.);
#265 = EDGE_LOOP('',(#266,#267,#268,#276));
#266 = ORIENTED_EDGE('',*,*,#71,.T.);
#267 = ORIENTED_EDGE('',*,*,#168,.T.);
#268 = ORIENTED_EDGE('',*,*,#269,.F.);
#269 = EDGE_CURVE('',#270,#169,#272,.T.);
#270 = VERTEX_POINT('',#271);
#271 = CARTESIAN_POINT('',(-1.,-60.52627944162,27.));
#272 = LINE('',#273,#274);
#273 = CARTESIAN_POINT('',(8.072397833512E-15,-60.52627944162,27.));
#274 = VECTOR('',#275,1.);
#275 = DIRECTION('',(-1.,2.2E-16,-1.110223024625E-16));
#276 = ORIENTED_EDGE('',*,*,#277,.T.);
#277 = EDGE_CURVE('',#270,#72,#278,.T.);
#278 = LINE('',#279,#280);
#279 = CARTESIAN_POINT('',(-1.,-60.52627944162,27.));
#280 = VECTOR('',#281,1.);
#281 = DIRECTION('',(-8.661481343192E-16,0.5,0.866025403784));
#282 = PLANE('',#283);
#283 = AXIS2_PLACEMENT_3D('',#284,#285,#286);
#284 = CARTESIAN_POINT('',(4.188848768742E-16,-47.24722325026,50.));
#285 = DIRECTION('',(-2.455111512313E-16,-0.866025403784,0.5));
#286 = DIRECTION('',(2.861481343192E-16,-0.5,-0.866025403784));
#287 = ADVANCED_FACE('',(#288),#313,.T.);
#288 = FACE_BOUND('',#289,.T.);
#289 = EDGE_LOOP('',(#290,#298,#299,#307));
#290 = ORIENTED_EDGE('',*,*,#291,.F.);
#291 = EDGE_CURVE('',#72,#292,#294,.T.);
#292 = VERTEX_POINT('',#293);
#293 = CARTESIAN_POINT('',(-5.844009282066E-14,-48.97927405783,49.));
#294 = LINE('',#295,#296);
#295 = CARTESIAN_POINT('',(3.8,-55.56106712659,45.2));
#296 = VECTOR('',#297,1.);
#297 = DIRECTION('',(0.4472135955,-0.774596669241,-0.4472135955));
#298 = ORIENTED_EDGE('',*,*,#104,.T.);
#299 = ORIENTED_EDGE('',*,*,#300,.T.);
#300 = EDGE_CURVE('',#97,#301,#303,.T.);
#301 = VERTEX_POINT('',#302);
#302 = CARTESIAN_POINT('',(-8.444009282066E-14,-78.,49.));
#303 = LINE('',#304,#305);
#304 = CARTESIAN_POINT('',(-0.5,-78.,49.5));
#305 = VECTOR('',#306,1.);
#306 = DIRECTION('',(0.707106781187,-1.408504622934E-15,-0.707106781187)
  );
#307 = ORIENTED_EDGE('',*,*,#308,.F.);
#308 = EDGE_CURVE('',#292,#301,#309,.T.);
#309 = LINE('',#310,#311);
#310 = CARTESIAN_POINT('',(-6.011009282066E-14,-47.24722325026,49.));
#311 = VECTOR('',#312,1.);
#312 = DIRECTION('',(-2.098321516542E-31,-1.,2.001022302463E-15));
#313 = PLANE('',#314);
#314 = AXIS2_PLACEMENT_3D('',#315,#316,#317);
#315 = CARTESIAN_POINT('',(-0.5,-47.24722325026,49.5));
#316 = DIRECTION('',(0.707106781187,1.385046229342E-16,0.707106781187));
#317 = DIRECTION('',(-8.975735931288E-16,-1.,1.093448709334E-15));
#318 = ADVANCED_FACE('',(#319),#346,.T.);
#319 = FACE_BOUND('',#320,.T.);
#320 = EDGE_LOOP('',(#321,#322,#331,#339));
#321 = ORIENTED_EDGE('',*,*,#96,.T.);
#322 = ORIENTED_EDGE('',*,*,#323,.T.);
#323 = EDGE_CURVE('',#89,#324,#326,.T.);
#324 = VERTEX_POINT('',#325);
#325 = CARTESIAN_POINT('',(-24.,-86.,42.));
#326 = CIRCLE('',#327,8.);
#327 = AXIS2_PLACEMENT_3D('',#328,#329,#330);
#328 = CARTESIAN_POINT('',(-24.,-78.,42.));
#329 = DIRECTION('',(1.,2.221581032982E-31,2.001022302463E-15));
#330 = DIRECTION('',(-2.001022302463E-15,7.221022302463E-15,1.));
#331 = ORIENTED_EDGE('',*,*,#332,.F.);
#332 = EDGE_CURVE('',#333,#324,#335,.T.);
#333 = VERTEX_POINT('',#334);
#334 = CARTESIAN_POINT('',(-1.,-86.,42.));
#335 = LINE('',#336,#337);
#336 = CARTESIAN_POINT('',(-1.399293670343E-14,-86.,42.));
#337 = VECTOR('',#338,1.);
#338 = DIRECTION('',(-1.,2.2E-16,-1.110223024625E-16));
#339 = ORIENTED_EDGE('',*,*,#340,.F.);
#340 = EDGE_CURVE('',#97,#333,#341,.T.);
#341 = CIRCLE('',#342,8.);
#342 = AXIS2_PLACEMENT_3D('',#343,#344,#345);
#343 = CARTESIAN_POINT('',(-1.,-78.,42.));
#344 = DIRECTION('',(1.,2.221581032982E-31,2.001022302463E-15));
#345 = DIRECTION('',(-2.001022302463E-15,3.661022302463E-15,1.));
#346 = CYLINDRICAL_SURFACE('',#347,8.);
#347 = AXIS2_PLACEMENT_3D('',#348,#349,#350);
#348 = CARTESIAN_POINT('',(-1.399293670343E-14,-78.,42.));
#349 = DIRECTION('',(1.,3.675085818583E-32,3.310223024625E-16));
#350 = DIRECTION('',(7.282490654175E-32,1.,-3.310223024625E-16));
#351 = ADVANCED_FACE('',(#352),#370,.F.);
#352 = FACE_BOUND('',#353,.T.);
#353 = EDGE_LOOP('',(#354,#355,#363,#369));
#354 = ORIENTED_EDGE('',*,*,#135,.F.);
#355 = ORIENTED_EDGE('',*,*,#356,.T.);
#356 = EDGE_CURVE('',#127,#357,#359,.T.);
#357 = VERTEX_POINT('',#358);
#358 = CARTESIAN_POINT('',(-25.,-78.,49.));
#359 = LINE('',#360,#361);
#360 = CARTESIAN_POINT('',(-25.,-38.,49.));
#361 = VECTOR('',#362,1.);
#362 = DIRECTION('',(-2.098321516542E-31,-1.,2.001022302463E-15));
#363 = ORIENTED_EDGE('',*,*,#364,.T.);
#364 = EDGE_CURVE('',#357,#89,#365,.T.);
#365 = LINE('',#366,#367);
#366 = CARTESIAN_POINT('',(-24.5,-78.,49.5));
#367 = VECTOR('',#368,1.);
#368 = DIRECTION('',(0.707106781187,1.408504622934E-15,0.707106781187));
#369 = ORIENTED_EDGE('',*,*,#88,.F.);
#370 = PLANE('',#371);
#371 = AXIS2_PLACEMENT_3D('',#372,#373,#374);
#372 = CARTESIAN_POINT('',(-24.5,-38.,49.5));
#373 = DIRECTION('',(0.707106781187,-1.588504622934E-15,-0.707106781187)
  );
#374 = DIRECTION('',(1.277312395917E-16,1.,-2.118753542054E-15));
#375 = ADVANCED_FACE('',(#376),#394,.F.);
#376 = FACE_BOUND('',#377,.T.);
#377 = EDGE_LOOP('',(#378,#386,#392,#393));
#378 = ORIENTED_EDGE('',*,*,#379,.F.);
#379 = EDGE_CURVE('',#380,#229,#382,.T.);
#380 = VERTEX_POINT('',#381);
#381 = CARTESIAN_POINT('',(-25.,-31.,25.));
#382 = LINE('',#383,#384);
#383 = CARTESIAN_POINT('',(-24.,-30.,25.));
#384 = VECTOR('',#385,1.);
#385 = DIRECTION('',(0.707106781187,0.707106781187,6.21E-15));
#386 = ORIENTED_EDGE('',*,*,#387,.T.);
#387 = EDGE_CURVE('',#380,#119,#388,.T.);
#388 = LINE('',#389,#390);
#389 = CARTESIAN_POINT('',(-25.,-31.,25.));
#390 = VECTOR('',#391,1.);
#391 = DIRECTION('',(-2.001022302463E-15,6.710223024625E-16,1.));
#392 = ORIENTED_EDGE('',*,*,#118,.T.);
#393 = ORIENTED_EDGE('',*,*,#236,.F.);
#394 = PLANE('',#395);
#395 = AXIS2_PLACEMENT_3D('',#396,#397,#398);
#396 = CARTESIAN_POINT('',(-24.5,-30.5,25.));
#397 = DIRECTION('',(0.707106781187,-0.707106781187,1.927009245868E-15)
  );
#398 = DIRECTION('',(2.027601305163E-15,-6.976013051627E-16,-1.));
#399 = ADVANCED_FACE('',(#400,#462,#473,#484,#495,#506,#517,#528,#539),
  #550,.F.);
#400 = FACE_BOUND('',#401,.F.);
#401 = EDGE_LOOP('',(#402,#412,#421,#429,#436,#437,#438,#439,#448,#456)
  );
#402 = ORIENTED_EDGE('',*,*,#403,.T.);
#403 = EDGE_CURVE('',#404,#406,#408,.T.);
#404 = VERTEX_POINT('',#405);
#405 = CARTESIAN_POINT('',(-25.,-1.,1.));
#406 = VERTEX_POINT('',#407);
#407 = CARTESIAN_POINT('',(-25.,-1.,15.));
#408 = LINE('',#409,#410);
#409 = CARTESIAN_POINT('',(-25.,-1.,-1.63245352591E-14));
#410 = VECTOR('',#411,1.);
#411 = DIRECTION('',(-2.001022302463E-15,6.710223024625E-16,1.));
#412 = ORIENTED_EDGE('',*,*,#413,.T.);
#413 = EDGE_CURVE('',#406,#414,#416,.T.);
#414 = VERTEX_POINT('',#415);
#415 = CARTESIAN_POINT('',(-25.,-5.,19.));
#416 = CIRCLE('',#417,4.);
#417 = AXIS2_PLACEMENT_3D('',#418,#419,#420);
#418 = CARTESIAN_POINT('',(-25.,-5.,15.));
#419 = DIRECTION('',(1.,2.221581032982E-31,2.001022302463E-15));
#420 = DIRECTION('',(-3.127597858749E-29,1.,1.551897769754E-14));
#421 = ORIENTED_EDGE('',*,*,#422,.T.);
#422 = EDGE_CURVE('',#414,#423,#425,.T.);
#423 = VERTEX_POINT('',#424);
#424 = CARTESIAN_POINT('',(-25.,-25.,19.));
#425 = LINE('',#426,#427);
#426 = CARTESIAN_POINT('',(-25.,-5.,19.));
#427 = VECTOR('',#428,1.);
#428 = DIRECTION('',(-2.098321516542E-31,-1.,2.001022302463E-15));
#429 = ORIENTED_EDGE('',*,*,#430,.T.);
#430 = EDGE_CURVE('',#423,#380,#431,.T.);
#431 = CIRCLE('',#432,6.);
#432 = AXIS2_PLACEMENT_3D('',#433,#434,#435);
#433 = CARTESIAN_POINT('',(-25.,-25.,25.));
#434 = DIRECTION('',(-1.,-2.221581032982E-31,-2.001022302463E-15));
#435 = DIRECTION('',(2.001022302463E-15,6.278977697537E-15,-1.));
#436 = ORIENTED_EDGE('',*,*,#387,.T.);
#437 = ORIENTED_EDGE('',*,*,#126,.T.);
#438 = ORIENTED_EDGE('',*,*,#356,.T.);
#439 = ORIENTED_EDGE('',*,*,#440,.T.);
#440 = EDGE_CURVE('',#357,#441,#443,.T.);
#441 = VERTEX_POINT('',#442);
#442 = CARTESIAN_POINT('',(-25.,-85.,42.));
#443 = CIRCLE('',#444,7.);
#444 = AXIS2_PLACEMENT_3D('',#445,#446,#447);
#445 = CARTESIAN_POINT('',(-25.,-78.,42.));
#446 = DIRECTION('',(1.,2.221581032982E-31,2.001022302463E-15));
#447 = DIRECTION('',(-2.001022302463E-15,7.221022302463E-15,1.));
#448 = ORIENTED_EDGE('',*,*,#449,.T.);
#449 = EDGE_CURVE('',#441,#450,#452,.T.);
#450 = VERTEX_POINT('',#451);
#451 = CARTESIAN_POINT('',(-25.,-85.,1.));
#452 = LINE('',#453,#454);
#453 = CARTESIAN_POINT('',(-25.,-85.,42.));
#454 = VECTOR('',#455,1.);
#455 = DIRECTION('',(2.001022302463E-15,-6.710223024625E-16,-1.));
#456 = ORIENTED_EDGE('',*,*,#457,.T.);
#457 = EDGE_CURVE('',#450,#404,#458,.T.);
#458 = LINE('',#459,#460);
#459 = CARTESIAN_POINT('',(-25.,-86.,1.));
#460 = VECTOR('',#461,1.);
#461 = DIRECTION('',(2.098321516542E-31,1.,-2.001022302463E-15));
#462 = FACE_BOUND('',#463,.F.);
#463 = EDGE_LOOP('',(#464));
#464 = ORIENTED_EDGE('',*,*,#465,.T.);
#465 = EDGE_CURVE('',#466,#466,#468,.T.);
#466 = VERTEX_POINT('',#467);
#467 = CARTESIAN_POINT('',(-25.,-15.,10.));
#468 = CIRCLE('',#469,5.);
#469 = AXIS2_PLACEMENT_3D('',#470,#471,#472);
#470 = CARTESIAN_POINT('',(-25.,-10.,10.));
#471 = DIRECTION('',(-1.,2.2E-16,-1.110223024625E-16));
#472 = DIRECTION('',(-2.2E-16,-1.,1.110223024625E-16));
#473 = FACE_BOUND('',#474,.F.);
#474 = EDGE_LOOP('',(#475));
#475 = ORIENTED_EDGE('',*,*,#476,.F.);
#476 = EDGE_CURVE('',#477,#477,#479,.T.);
#477 = VERTEX_POINT('',#478);
#478 = CARTESIAN_POINT('',(-25.,-33.7,6.));
#479 = CIRCLE('',#480,1.8);
#480 = AXIS2_PLACEMENT_3D('',#481,#482,#483);
#481 = CARTESIAN_POINT('',(-25.,-35.5,6.));
#482 = DIRECTION('',(1.,-2.2E-16,1.110223024625E-16));
#483 = DIRECTION('',(2.2E-16,1.,-1.110223024625E-16));
#484 = FACE_BOUND('',#485,.F.);
#485 = EDGE_LOOP('',(#486));
#486 = ORIENTED_EDGE('',*,*,#487,.F.);
#487 = EDGE_CURVE('',#488,#488,#490,.T.);
#488 = VERTEX_POINT('',#489);
#489 = CARTESIAN_POINT('',(-25.,-33.7,37.));
#490 = CIRCLE('',#491,1.8);
#491 = AXIS2_PLACEMENT_3D('',#492,#493,#494);
#492 = CARTESIAN_POINT('',(-25.,-35.5,37.));
#493 = DIRECTION('',(1.,-2.2E-16,1.110223024625E-16));
#494 = DIRECTION('',(2.2E-16,1.,-1.110223024625E-16));
#495 = FACE_BOUND('',#496,.F.);
#496 = EDGE_LOOP('',(#497));
#497 = ORIENTED_EDGE('',*,*,#498,.T.);
#498 = EDGE_CURVE('',#499,#499,#501,.T.);
#499 = VERTEX_POINT('',#500);
#500 = CARTESIAN_POINT('',(-25.,-40.,21.5));
#501 = CIRCLE('',#502,11.);
#502 = AXIS2_PLACEMENT_3D('',#503,#504,#505);
#503 = CARTESIAN_POINT('',(-25.,-51.,21.5));
#504 = DIRECTION('',(-1.,-1.111358008357E-31,-1.001022302463E-15));
#505 = DIRECTION('',(8.909098491916E-31,1.,-1.001022302463E-15));
#506 = FACE_BOUND('',#507,.F.);
#507 = EDGE_LOOP('',(#508));
#508 = ORIENTED_EDGE('',*,*,#509,.F.);
#509 = EDGE_CURVE('',#510,#510,#512,.T.);
#510 = VERTEX_POINT('',#511);
#511 = CARTESIAN_POINT('',(-25.,-64.7,6.));
#512 = CIRCLE('',#513,1.8);
#513 = AXIS2_PLACEMENT_3D('',#514,#515,#516);
#514 = CARTESIAN_POINT('',(-25.,-66.5,6.));
#515 = DIRECTION('',(1.,-2.2E-16,1.110223024625E-16));
#516 = DIRECTION('',(2.2E-16,1.,-1.110223024625E-16));
#517 = FACE_BOUND('',#518,.F.);
#518 = EDGE_LOOP('',(#519));
#519 = ORIENTED_EDGE('',*,*,#520,.T.);
#520 = EDGE_CURVE('',#521,#521,#523,.T.);
#521 = VERTEX_POINT('',#522);
#522 = CARTESIAN_POINT('',(-25.,-83.,10.));
#523 = CIRCLE('',#524,5.);
#524 = AXIS2_PLACEMENT_3D('',#525,#526,#527);
#525 = CARTESIAN_POINT('',(-25.,-78.,10.));
#526 = DIRECTION('',(-1.,2.2E-16,-1.110223024625E-16));
#527 = DIRECTION('',(-2.2E-16,-1.,1.110223024625E-16));
#528 = FACE_BOUND('',#529,.F.);
#529 = EDGE_LOOP('',(#530));
#530 = ORIENTED_EDGE('',*,*,#531,.F.);
#531 = EDGE_CURVE('',#532,#532,#534,.T.);
#532 = VERTEX_POINT('',#533);
#533 = CARTESIAN_POINT('',(-25.,-64.7,37.));
#534 = CIRCLE('',#535,1.8);
#535 = AXIS2_PLACEMENT_3D('',#536,#537,#538);
#536 = CARTESIAN_POINT('',(-25.,-66.5,37.));
#537 = DIRECTION('',(1.,-2.2E-16,1.110223024625E-16));
#538 = DIRECTION('',(2.2E-16,1.,-1.110223024625E-16));
#539 = FACE_BOUND('',#540,.F.);
#540 = EDGE_LOOP('',(#541));
#541 = ORIENTED_EDGE('',*,*,#542,.T.);
#542 = EDGE_CURVE('',#543,#543,#545,.T.);
#543 = VERTEX_POINT('',#544);
#544 = CARTESIAN_POINT('',(-25.,-83.,40.));
#545 = CIRCLE('',#546,5.);
#546 = AXIS2_PLACEMENT_3D('',#547,#548,#549);
#547 = CARTESIAN_POINT('',(-25.,-78.,40.));
#548 = DIRECTION('',(-1.,2.2E-16,-1.110223024625E-16));
#549 = DIRECTION('',(-2.2E-16,-1.,1.110223024625E-16));
#550 = PLANE('',#551);
#551 = AXIS2_PLACEMENT_3D('',#552,#553,#554);
#552 = CARTESIAN_POINT('',(-25.,-46.52522596677,20.899716314192));
#553 = DIRECTION('',(1.,1.232595164408E-32,1.110223024625E-16));
#554 = DIRECTION('',(-1.110223024625E-16,1.110223024625E-16,1.));
#555 = ADVANCED_FACE('',(#556),#582,.F.);
#556 = FACE_BOUND('',#557,.F.);
#557 = EDGE_LOOP('',(#558,#559,#567,#575,#581));
#558 = ORIENTED_EDGE('',*,*,#251,.T.);
#559 = ORIENTED_EDGE('',*,*,#560,.T.);
#560 = EDGE_CURVE('',#221,#561,#563,.T.);
#561 = VERTEX_POINT('',#562);
#562 = CARTESIAN_POINT('',(-21.,-30.,2.));
#563 = LINE('',#564,#565);
#564 = CARTESIAN_POINT('',(-21.,-30.,50.));
#565 = VECTOR('',#566,1.);
#566 = DIRECTION('',(1.781022302463E-15,-1.110223024625E-16,-1.));
#567 = ORIENTED_EDGE('',*,*,#568,.T.);
#568 = EDGE_CURVE('',#561,#569,#571,.T.);
#569 = VERTEX_POINT('',#570);
#570 = CARTESIAN_POINT('',(-11.,-30.,2.));
#571 = LINE('',#572,#573);
#572 = CARTESIAN_POINT('',(-21.,-30.,2.));
#573 = VECTOR('',#574,1.);
#574 = DIRECTION('',(1.,1.233482541066E-31,1.111022302463E-15));
#575 = ORIENTED_EDGE('',*,*,#576,.F.);
#576 = EDGE_CURVE('',#153,#569,#577,.T.);
#577 = LINE('',#578,#579);
#578 = CARTESIAN_POINT('',(-11.,-30.,50.));
#579 = VECTOR('',#580,1.);
#580 = DIRECTION('',(1.781022302463E-15,-1.110223024625E-16,-1.));
#581 = ORIENTED_EDGE('',*,*,#150,.F.);
#582 = PLANE('',#583);
#583 = AXIS2_PLACEMENT_3D('',#584,#585,#586);
#584 = CARTESIAN_POINT('',(-21.,-30.,50.));
#585 = DIRECTION('',(0.,-1.,1.110223024625E-16));
#586 = DIRECTION('',(1.,1.721980671901E-31,1.551022302463E-15));
#587 = ADVANCED_FACE('',(#588),#621,.T.);
#588 = FACE_BOUND('',#589,.T.);
#589 = EDGE_LOOP('',(#590,#600,#606,#607,#615));
#590 = ORIENTED_EDGE('',*,*,#591,.T.);
#591 = EDGE_CURVE('',#592,#594,#596,.T.);
#592 = VERTEX_POINT('',#593);
#593 = CARTESIAN_POINT('',(-1.,-25.,20.));
#594 = VERTEX_POINT('',#595);
#595 = CARTESIAN_POINT('',(-11.,-25.,20.));
#596 = LINE('',#597,#598);
#597 = CARTESIAN_POINT('',(-6.66044604925E-15,-25.,20.));
#598 = VECTOR('',#599,1.);
#599 = DIRECTION('',(-1.,2.2E-16,-1.110223024625E-16));
#600 = ORIENTED_EDGE('',*,*,#601,.T.);
#601 = EDGE_CURVE('',#594,#153,#602,.T.);
#602 = LINE('',#603,#604);
#603 = CARTESIAN_POINT('',(-11.,-25.,20.));
#604 = VECTOR('',#605,1.);
#605 = DIRECTION('',(4.101904303344E-17,-0.929243973423,-0.369466693841)
  );
#606 = ORIENTED_EDGE('',*,*,#194,.T.);
#607 = ORIENTED_EDGE('',*,*,#608,.F.);
#608 = EDGE_CURVE('',#609,#186,#611,.T.);
#609 = VERTEX_POINT('',#610);
#610 = CARTESIAN_POINT('',(-1.,-46.93586636774,11.278316292352));
#611 = LINE('',#612,#613);
#612 = CARTESIAN_POINT('',(1.331785535732E-14,-46.93586636774,
    11.278316292352));
#613 = VECTOR('',#614,1.);
#614 = DIRECTION('',(-1.,2.2E-16,-1.110223024625E-16));
#615 = ORIENTED_EDGE('',*,*,#616,.F.);
#616 = EDGE_CURVE('',#592,#609,#617,.T.);
#617 = LINE('',#618,#619);
#618 = CARTESIAN_POINT('',(-1.,-25.,20.));
#619 = VECTOR('',#620,1.);
#620 = DIRECTION('',(3.710190430334E-16,-0.929243973423,-0.369466693841)
  );
#621 = PLANE('',#622);
#622 = AXIS2_PLACEMENT_3D('',#623,#624,#625);
#623 = CARTESIAN_POINT('',(1.040955395075E-14,-25.,20.));
#624 = DIRECTION('',(-1.831668054788E-16,-0.369466693841,0.929243973423)
  );
#625 = DIRECTION('',(1.210190430334E-16,-0.929243973423,-0.369466693841)
  );
#626 = ADVANCED_FACE('',(#627),#647,.F.);
#627 = FACE_BOUND('',#628,.F.);
#628 = EDGE_LOOP('',(#629,#630,#631,#636,#637,#638,#639,#640));
#629 = ORIENTED_EDGE('',*,*,#269,.T.);
#630 = ORIENTED_EDGE('',*,*,#176,.T.);
#631 = ORIENTED_EDGE('',*,*,#632,.T.);
#632 = EDGE_CURVE('',#177,#499,#633,.T.);
#633 = B_SPLINE_CURVE_WITH_KNOTS('',1,(#634,#635),.UNSPECIFIED.,.F.,.F.,
  (2,2),(-14.,3.55E-15),.PIECEWISE_BEZIER_KNOTS.);
#634 = CARTESIAN_POINT('',(-11.,-40.,21.5));
#635 = CARTESIAN_POINT('',(-25.,-40.,21.5));
#636 = ORIENTED_EDGE('',*,*,#498,.F.);
#637 = ORIENTED_EDGE('',*,*,#632,.F.);
#638 = ORIENTED_EDGE('',*,*,#185,.T.);
#639 = ORIENTED_EDGE('',*,*,#608,.F.);
#640 = ORIENTED_EDGE('',*,*,#641,.T.);
#641 = EDGE_CURVE('',#609,#270,#642,.T.);
#642 = CIRCLE('',#643,11.);
#643 = AXIS2_PLACEMENT_3D('',#644,#645,#646);
#644 = CARTESIAN_POINT('',(-1.,-51.,21.5));
#645 = DIRECTION('',(-1.,-1.972152263053E-31,-2.001022302463E-15));
#646 = DIRECTION('',(1.859437915247E-15,0.369466693841,-0.929243973423)
  );
#647 = CYLINDRICAL_SURFACE('',#648,11.);
#648 = AXIS2_PLACEMENT_3D('',#649,#650,#651);
#649 = CARTESIAN_POINT('',(-25.,-51.,21.5));
#650 = DIRECTION('',(-1.,4.4E-16,-5.510223024625E-16));
#651 = DIRECTION('',(4.4E-16,1.,-1.001022302463E-15));
#652 = ADVANCED_FACE('',(#653),#672,.F.);
#653 = FACE_BOUND('',#654,.T.);
#654 = EDGE_LOOP('',(#655,#656,#664,#671));
#655 = ORIENTED_EDGE('',*,*,#202,.F.);
#656 = ORIENTED_EDGE('',*,*,#657,.T.);
#657 = EDGE_CURVE('',#203,#658,#660,.T.);
#658 = VERTEX_POINT('',#659);
#659 = CARTESIAN_POINT('',(-20.,-31.5,37.));
#660 = LINE('',#661,#662);
#661 = CARTESIAN_POINT('',(1.42108547152E-14,-31.5,37.));
#662 = VECTOR('',#663,1.);
#663 = DIRECTION('',(-1.,2.2E-16,-1.110223024625E-16));
#664 = ORIENTED_EDGE('',*,*,#665,.F.);
#665 = EDGE_CURVE('',#658,#658,#666,.T.);
#666 = CIRCLE('',#667,4.);
#667 = AXIS2_PLACEMENT_3D('',#668,#669,#670);
#668 = CARTESIAN_POINT('',(-20.,-35.5,37.));
#669 = DIRECTION('',(1.,-2.2E-16,1.110223024625E-16));
#670 = DIRECTION('',(2.2E-16,1.,-1.110223024625E-16));
#671 = ORIENTED_EDGE('',*,*,#657,.F.);
#672 = CYLINDRICAL_SURFACE('',#673,4.);
#673 = AXIS2_PLACEMENT_3D('',#674,#675,#676);
#674 = CARTESIAN_POINT('',(1.42108547152E-14,-35.5,37.));
#675 = DIRECTION('',(-1.,2.2E-16,-1.110223024625E-16));
#676 = DIRECTION('',(2.2E-16,1.,-1.110223024625E-16));
#677 = ADVANCED_FACE('',(#678),#705,.F.);
#678 = FACE_BOUND('',#679,.F.);
#679 = EDGE_LOOP('',(#680,#690,#697,#698));
#680 = ORIENTED_EDGE('',*,*,#681,.F.);
#681 = EDGE_CURVE('',#682,#684,#686,.T.);
#682 = VERTEX_POINT('',#683);
#683 = CARTESIAN_POINT('',(-21.,-25.,20.));
#684 = VERTEX_POINT('',#685);
#685 = CARTESIAN_POINT('',(-24.,-25.,20.));
#686 = LINE('',#687,#688);
#687 = CARTESIAN_POINT('',(-6.66044604925E-15,-25.,20.));
#688 = VECTOR('',#689,1.);
#689 = DIRECTION('',(-1.,2.2E-16,-1.110223024625E-16));
#690 = ORIENTED_EDGE('',*,*,#691,.F.);
#691 = EDGE_CURVE('',#221,#682,#692,.T.);
#692 = CIRCLE('',#693,5.);
#693 = AXIS2_PLACEMENT_3D('',#694,#695,#696);
#694 = CARTESIAN_POINT('',(-21.,-25.,25.));
#695 = DIRECTION('',(1.,-1.11E-15,8.910223024625E-16));
#696 = DIRECTION('',(1.11E-15,1.,-2.001022302463E-15));
#697 = ORIENTED_EDGE('',*,*,#228,.T.);
#698 = ORIENTED_EDGE('',*,*,#699,.F.);
#699 = EDGE_CURVE('',#684,#229,#700,.T.);
#700 = CIRCLE('',#701,5.);
#701 = AXIS2_PLACEMENT_3D('',#702,#703,#704);
#702 = CARTESIAN_POINT('',(-24.,-25.,25.));
#703 = DIRECTION('',(-1.,-2.221581032982E-31,-2.001022302463E-15));
#704 = DIRECTION('',(2.001022302463E-15,6.278977697537E-15,-1.));
#705 = CYLINDRICAL_SURFACE('',#706,5.);
#706 = AXIS2_PLACEMENT_3D('',#707,#708,#709);
#707 = CARTESIAN_POINT('',(-8.325557561563E-15,-25.,25.));
#708 = DIRECTION('',(1.,3.675085818583E-32,3.310223024625E-16));
#709 = DIRECTION('',(7.282490654175E-32,1.,-3.310223024625E-16));
#710 = ADVANCED_FACE('',(#711),#729,.F.);
#711 = FACE_BOUND('',#712,.T.);
#712 = EDGE_LOOP('',(#713,#721,#722,#723));
#713 = ORIENTED_EDGE('',*,*,#714,.F.);
#714 = EDGE_CURVE('',#270,#715,#717,.T.);
#715 = VERTEX_POINT('',#716);
#716 = CARTESIAN_POINT('',(-5.605311331772E-14,-61.39230484541,27.5));
#717 = LINE('',#718,#719);
#718 = CARTESIAN_POINT('',(-1.,-60.52627944162,27.));
#719 = VECTOR('',#720,1.);
#720 = DIRECTION('',(0.707106781187,-0.612372435696,0.353553390593));
#721 = ORIENTED_EDGE('',*,*,#277,.T.);
#722 = ORIENTED_EDGE('',*,*,#291,.T.);
#723 = ORIENTED_EDGE('',*,*,#724,.F.);
#724 = EDGE_CURVE('',#715,#292,#725,.T.);
#725 = LINE('',#726,#727);
#726 = CARTESIAN_POINT('',(-6.548311331772E-14,-61.39230484541,27.5));
#727 = VECTOR('',#728,1.);
#728 = DIRECTION('',(-8.661481343192E-16,0.5,0.866025403784));
#729 = PLANE('',#730);
#730 = AXIS2_PLACEMENT_3D('',#731,#732,#733);
#731 = CARTESIAN_POINT('',(-0.5,-60.95929214352,27.25));
#732 = DIRECTION('',(-0.707106781187,-0.612372435696,0.353553390593));
#733 = DIRECTION('',(3.459483148598E-16,-0.5,-0.866025403784));
#734 = ADVANCED_FACE('',(#735,#804,#815,#826,#837,#848,#859),#870,.T.);
#735 = FACE_BOUND('',#736,.T.);
#736 = EDGE_LOOP('',(#737,#738,#747,#755,#763,#771,#780,#788,#796,#803)
  );
#737 = ORIENTED_EDGE('',*,*,#308,.T.);
#738 = ORIENTED_EDGE('',*,*,#739,.T.);
#739 = EDGE_CURVE('',#301,#740,#742,.T.);
#740 = VERTEX_POINT('',#741);
#741 = CARTESIAN_POINT('',(-8.266293670343E-14,-85.,42.));
#742 = CIRCLE('',#743,7.);
#743 = AXIS2_PLACEMENT_3D('',#744,#745,#746);
#744 = CARTESIAN_POINT('',(-8.393293670343E-14,-78.,42.));
#745 = DIRECTION('',(1.,2.221581032982E-31,2.001022302463E-15));
#746 = DIRECTION('',(-2.001022302463E-15,3.661022302463E-15,1.));
#747 = ORIENTED_EDGE('',*,*,#748,.T.);
#748 = EDGE_CURVE('',#740,#749,#751,.T.);
#749 = VERTEX_POINT('',#750);
#750 = CARTESIAN_POINT('',(-3.711102230246E-14,-85.,1.));
#751 = LINE('',#752,#753);
#752 = CARTESIAN_POINT('',(-1.084129367034E-13,-85.,42.));
#753 = VECTOR('',#754,1.);
#754 = DIRECTION('',(2.001022302463E-15,-6.710223024625E-16,-1.));
#755 = ORIENTED_EDGE('',*,*,#756,.T.);
#756 = EDGE_CURVE('',#749,#757,#759,.T.);
#757 = VERTEX_POINT('',#758);
#758 = CARTESIAN_POINT('',(-7.211102230246E-14,-1.,1.));
#759 = LINE('',#760,#761);
#760 = CARTESIAN_POINT('',(-8.243102230246E-14,-86.,1.));
#761 = VECTOR('',#762,1.);
#762 = DIRECTION('',(2.098321516542E-31,1.,-2.001022302463E-15));
#763 = ORIENTED_EDGE('',*,*,#764,.F.);
#764 = EDGE_CURVE('',#765,#757,#767,.T.);
#765 = VERTEX_POINT('',#766);
#766 = CARTESIAN_POINT('',(-2.966533453694E-14,-1.,15.));
#767 = LINE('',#768,#769);
#768 = CARTESIAN_POINT('',(2.414466546306E-14,-1.,15.));
#769 = VECTOR('',#770,1.);
#770 = DIRECTION('',(2.001022302463E-15,-6.710223024625E-16,-1.));
#771 = ORIENTED_EDGE('',*,*,#772,.F.);
#772 = EDGE_CURVE('',#773,#765,#775,.T.);
#773 = VERTEX_POINT('',#774);
#774 = CARTESIAN_POINT('',(1.589057625321E-14,-5.,19.));
#775 = CIRCLE('',#776,4.);
#776 = AXIS2_PLACEMENT_3D('',#777,#778,#779);
#777 = CARTESIAN_POINT('',(-2.997533453694E-14,-5.,15.));
#778 = DIRECTION('',(-1.,-2.221581032982E-31,-2.001022302463E-15));
#779 = DIRECTION('',(-2.001022302463E-15,-1.838977697537E-15,1.));
#780 = ORIENTED_EDGE('',*,*,#781,.F.);
#781 = EDGE_CURVE('',#782,#773,#784,.T.);
#782 = VERTEX_POINT('',#783);
#783 = CARTESIAN_POINT('',(-9.109423746788E-15,-24.80849146146,19.));
#784 = LINE('',#785,#786);
#785 = CARTESIAN_POINT('',(-1.048942374679E-14,-25.,19.));
#786 = VECTOR('',#787,1.);
#787 = DIRECTION('',(2.098321516542E-31,1.,-2.001022302463E-15));
#788 = ORIENTED_EDGE('',*,*,#789,.T.);
#789 = EDGE_CURVE('',#782,#790,#792,.T.);
#790 = VERTEX_POINT('',#791);
#791 = CARTESIAN_POINT('',(-2.41489778372E-14,-46.5663996739,
    10.349072318929));
#792 = LINE('',#793,#794);
#793 = CARTESIAN_POINT('',(-1.063727924377E-14,-24.63053330616,
    19.070756026578));
#794 = VECTOR('',#795,1.);
#795 = DIRECTION('',(3.710190430334E-16,-0.929243973423,-0.369466693841)
  );
#796 = ORIENTED_EDGE('',*,*,#797,.T.);
#797 = EDGE_CURVE('',#790,#715,#798,.T.);
#798 = CIRCLE('',#799,12.);
#799 = AXIS2_PLACEMENT_3D('',#800,#801,#802);
#800 = CARTESIAN_POINT('',(-4.296697950294E-14,-51.,21.5));
#801 = DIRECTION('',(-1.,-1.972152263053E-31,-2.001022302463E-15));
#802 = DIRECTION('',(1.859437915247E-15,0.369466693841,-0.929243973423)
  );
#803 = ORIENTED_EDGE('',*,*,#724,.T.);
#804 = FACE_BOUND('',#805,.T.);
#805 = EDGE_LOOP('',(#806));
#806 = ORIENTED_EDGE('',*,*,#807,.F.);
#807 = EDGE_CURVE('',#808,#808,#810,.T.);
#808 = VERTEX_POINT('',#809);
#809 = CARTESIAN_POINT('',(4.889776975375E-15,-12.25,10.));
#810 = CIRCLE('',#811,2.25);
#811 = AXIS2_PLACEMENT_3D('',#812,#813,#814);
#812 = CARTESIAN_POINT('',(6.879776975375E-15,-10.,10.));
#813 = DIRECTION('',(1.,-2.2E-16,1.110223024625E-16));
#814 = DIRECTION('',(-2.2E-16,-1.,1.110223024625E-16));
#815 = FACE_BOUND('',#816,.T.);
#816 = EDGE_LOOP('',(#817));
#817 = ORIENTED_EDGE('',*,*,#818,.F.);
#818 = EDGE_CURVE('',#819,#819,#821,.T.);
#819 = VERTEX_POINT('',#820);
#820 = CARTESIAN_POINT('',(2.133386618522E-14,-31.5,6.));
#821 = CIRCLE('',#822,4.);
#822 = AXIS2_PLACEMENT_3D('',#823,#824,#825);
#823 = CARTESIAN_POINT('',(2.13162820728E-14,-35.5,6.));
#824 = DIRECTION('',(1.,-2.2E-16,1.110223024625E-16));
#825 = DIRECTION('',(2.2E-16,1.,-1.110223024625E-16));
#826 = FACE_BOUND('',#827,.T.);
#827 = EDGE_LOOP('',(#828));
#828 = ORIENTED_EDGE('',*,*,#829,.F.);
#829 = EDGE_CURVE('',#830,#830,#832,.T.);
#830 = VERTEX_POINT('',#831);
#831 = CARTESIAN_POINT('',(2.133386618522E-14,-62.5,6.));
#832 = CIRCLE('',#833,4.);
#833 = AXIS2_PLACEMENT_3D('',#834,#835,#836);
#834 = CARTESIAN_POINT('',(1.42108547152E-14,-66.5,6.));
#835 = DIRECTION('',(1.,-2.2E-16,1.110223024625E-16));
#836 = DIRECTION('',(2.2E-16,1.,-1.110223024625E-16));
#837 = FACE_BOUND('',#838,.T.);
#838 = EDGE_LOOP('',(#839));
#839 = ORIENTED_EDGE('',*,*,#840,.F.);
#840 = EDGE_CURVE('',#841,#841,#843,.T.);
#841 = VERTEX_POINT('',#842);
#842 = CARTESIAN_POINT('',(-4.011022302463E-14,-80.25,10.));
#843 = CIRCLE('',#844,2.25);
#844 = AXIS2_PLACEMENT_3D('',#845,#846,#847);
#845 = CARTESIAN_POINT('',(-3.841022302463E-14,-78.,10.));
#846 = DIRECTION('',(1.,-2.2E-16,1.110223024625E-16));
#847 = DIRECTION('',(-2.2E-16,-1.,1.110223024625E-16));
#848 = FACE_BOUND('',#849,.T.);
#849 = EDGE_LOOP('',(#850));
#850 = ORIENTED_EDGE('',*,*,#851,.F.);
#851 = EDGE_CURVE('',#852,#852,#854,.T.);
#852 = VERTEX_POINT('',#853);
#853 = CARTESIAN_POINT('',(1.089217480889E-14,-62.5,37.));
#854 = CIRCLE('',#855,4.);
#855 = AXIS2_PLACEMENT_3D('',#856,#857,#858);
#856 = CARTESIAN_POINT('',(1.42108547152E-14,-66.5,37.));
#857 = DIRECTION('',(1.,-2.2E-16,1.110223024625E-16));
#858 = DIRECTION('',(2.2E-16,1.,-1.110223024625E-16));
#859 = FACE_BOUND('',#860,.T.);
#860 = EDGE_LOOP('',(#861));
#861 = ORIENTED_EDGE('',*,*,#862,.F.);
#862 = EDGE_CURVE('',#863,#863,#865,.T.);
#863 = VERTEX_POINT('',#864);
#864 = CARTESIAN_POINT('',(-4.04408920985E-14,-80.25,40.));
#865 = CIRCLE('',#866,2.25);
#866 = AXIS2_PLACEMENT_3D('',#867,#868,#869);
#867 = CARTESIAN_POINT('',(-4.79608920985E-14,-78.,40.));
#868 = DIRECTION('',(1.,-2.2E-16,1.110223024625E-16));
#869 = DIRECTION('',(-2.2E-16,-1.,1.110223024625E-16));
#870 = PLANE('',#871);
#871 = AXIS2_PLACEMENT_3D('',#872,#873,#874);
#872 = CARTESIAN_POINT('',(-2.320334626015E-15,-46.52522596677,
    20.899716314192));
#873 = DIRECTION('',(1.,1.232595164408E-32,1.110223024625E-16));
#874 = DIRECTION('',(-1.110223024625E-16,1.110223024625E-16,1.));
#875 = ADVANCED_FACE('',(#876),#887,.T.);
#876 = FACE_BOUND('',#877,.T.);
#877 = EDGE_LOOP('',(#878,#879,#880,#886));
#878 = ORIENTED_EDGE('',*,*,#300,.F.);
#879 = ORIENTED_EDGE('',*,*,#340,.T.);
#880 = ORIENTED_EDGE('',*,*,#881,.T.);
#881 = EDGE_CURVE('',#333,#740,#882,.T.);
#882 = LINE('',#883,#884);
#883 = CARTESIAN_POINT('',(-1.,-86.,42.));
#884 = VECTOR('',#885,1.);
#885 = DIRECTION('',(0.707106781187,0.707106781187,-2.16E-15));
#886 = ORIENTED_EDGE('',*,*,#739,.F.);
#887 = CONICAL_SURFACE('',#888,8.,0.785398163397);
#888 = AXIS2_PLACEMENT_3D('',#889,#890,#891);
#889 = CARTESIAN_POINT('',(-1.,-78.,42.));
#890 = DIRECTION('',(-1.,-2.221581032982E-31,-2.001022302463E-15));
#891 = DIRECTION('',(-2.001022302463E-15,3.661022302463E-15,1.));
#892 = ADVANCED_FACE('',(#893),#904,.T.);
#893 = FACE_BOUND('',#894,.T.);
#894 = EDGE_LOOP('',(#895,#896,#897,#903));
#895 = ORIENTED_EDGE('',*,*,#364,.F.);
#896 = ORIENTED_EDGE('',*,*,#440,.T.);
#897 = ORIENTED_EDGE('',*,*,#898,.T.);
#898 = EDGE_CURVE('',#441,#324,#899,.T.);
#899 = LINE('',#900,#901);
#900 = CARTESIAN_POINT('',(-24.,-86.,42.));
#901 = VECTOR('',#902,1.);
#902 = DIRECTION('',(0.707106781187,-0.707106781187,6.717009245868E-15)
  );
#903 = ORIENTED_EDGE('',*,*,#323,.F.);
#904 = CONICAL_SURFACE('',#905,8.,0.785398163397);
#905 = AXIS2_PLACEMENT_3D('',#906,#907,#908);
#906 = CARTESIAN_POINT('',(-24.,-78.,42.));
#907 = DIRECTION('',(1.,2.221581032982E-31,2.001022302463E-15));
#908 = DIRECTION('',(-2.001022302463E-15,7.221022302463E-15,1.));
#909 = ADVANCED_FACE('',(#910),#935,.T.);
#910 = FACE_BOUND('',#911,.T.);
#911 = EDGE_LOOP('',(#912,#913,#921,#929));
#912 = ORIENTED_EDGE('',*,*,#332,.T.);
#913 = ORIENTED_EDGE('',*,*,#914,.T.);
#914 = EDGE_CURVE('',#324,#915,#917,.T.);
#915 = VERTEX_POINT('',#916);
#916 = CARTESIAN_POINT('',(-24.,-86.,1.848833827527E-13));
#917 = LINE('',#918,#919);
#918 = CARTESIAN_POINT('',(-24.,-86.,42.));
#919 = VECTOR('',#920,1.);
#920 = DIRECTION('',(2.001022302463E-15,-6.710223024625E-16,-1.));
#921 = ORIENTED_EDGE('',*,*,#922,.F.);
#922 = EDGE_CURVE('',#923,#915,#925,.T.);
#923 = VERTEX_POINT('',#924);
#924 = CARTESIAN_POINT('',(-1.,-86.,2.224368957093E-13));
#925 = LINE('',#926,#927);
#926 = CARTESIAN_POINT('',(-2.120525977034E-30,-86.,2.864791801178E-14)
  );
#927 = VECTOR('',#928,1.);
#928 = DIRECTION('',(-1.,2.2E-16,-1.110223024625E-16));
#929 = ORIENTED_EDGE('',*,*,#930,.F.);
#930 = EDGE_CURVE('',#333,#923,#931,.T.);
#931 = LINE('',#932,#933);
#932 = CARTESIAN_POINT('',(-1.,-86.,42.));
#933 = VECTOR('',#934,1.);
#934 = DIRECTION('',(2.001022302463E-15,-6.710223024625E-16,-1.));
#935 = PLANE('',#936);
#936 = AXIS2_PLACEMENT_3D('',#937,#938,#939);
#937 = CARTESIAN_POINT('',(-1.399293670343E-14,-86.,42.));
#938 = DIRECTION('',(-2.2E-16,-1.,1.110223024625E-16));
#939 = DIRECTION('',(3.310223024625E-16,-1.110223024625E-16,-1.));
#940 = ADVANCED_FACE('',(#941),#952,.F.);
#941 = FACE_BOUND('',#942,.T.);
#942 = EDGE_LOOP('',(#943,#949,#950,#951));
#943 = ORIENTED_EDGE('',*,*,#944,.F.);
#944 = EDGE_CURVE('',#423,#684,#945,.T.);
#945 = LINE('',#946,#947);
#946 = CARTESIAN_POINT('',(-24.5,-25.,19.5));
#947 = VECTOR('',#948,1.);
#948 = DIRECTION('',(0.707106781187,1.408504622934E-15,0.707106781187));
#949 = ORIENTED_EDGE('',*,*,#430,.T.);
#950 = ORIENTED_EDGE('',*,*,#379,.T.);
#951 = ORIENTED_EDGE('',*,*,#699,.F.);
#952 = CONICAL_SURFACE('',#953,5.,0.785398163397);
#953 = AXIS2_PLACEMENT_3D('',#954,#955,#956);
#954 = CARTESIAN_POINT('',(-24.,-25.,25.));
#955 = DIRECTION('',(-1.,-2.221581032982E-31,-2.001022302463E-15));
#956 = DIRECTION('',(2.001022302463E-15,6.278977697537E-15,-1.));
#957 = ADVANCED_FACE('',(#958),#983,.T.);
#958 = FACE_BOUND('',#959,.T.);
#959 = EDGE_LOOP('',(#960,#968,#969,#977));
#960 = ORIENTED_EDGE('',*,*,#961,.F.);
#961 = EDGE_CURVE('',#404,#962,#964,.T.);
#962 = VERTEX_POINT('',#963);
#963 = CARTESIAN_POINT('',(-24.,-8.E-15,-2.76645352591E-14));
#964 = LINE('',#965,#966);
#965 = CARTESIAN_POINT('',(-38.66666666666,-14.66666666666,
    14.666666666667));
#966 = VECTOR('',#967,1.);
#967 = DIRECTION('',(0.57735026919,0.57735026919,-0.57735026919));
#968 = ORIENTED_EDGE('',*,*,#403,.T.);
#969 = ORIENTED_EDGE('',*,*,#970,.T.);
#970 = EDGE_CURVE('',#406,#971,#973,.T.);
#971 = VERTEX_POINT('',#972);
#972 = CARTESIAN_POINT('',(-24.,-1.334665463062E-15,15.));
#973 = LINE('',#974,#975);
#974 = CARTESIAN_POINT('',(-24.5,-0.5,15.));
#975 = VECTOR('',#976,1.);
#976 = DIRECTION('',(0.707106781187,0.707106781187,9.4E-16));
#977 = ORIENTED_EDGE('',*,*,#978,.F.);
#978 = EDGE_CURVE('',#962,#971,#979,.T.);
#979 = LINE('',#980,#981);
#980 = CARTESIAN_POINT('',(-24.,-1.008E-14,-1.49845352591E-14));
#981 = VECTOR('',#982,1.);
#982 = DIRECTION('',(-2.001022302463E-15,6.710223024625E-16,1.));
#983 = PLANE('',#984);
#984 = AXIS2_PLACEMENT_3D('',#985,#986,#987);
#985 = CARTESIAN_POINT('',(-24.5,-0.5,-1.56545352591E-14));
#986 = DIRECTION('',(-0.707106781187,0.707106781187,-1.587009245868E-15)
  );
#987 = DIRECTION('',(-1.792184999559E-15,4.521849995593E-16,1.));
#988 = ADVANCED_FACE('',(#989),#1005,.F.);
#989 = FACE_BOUND('',#990,.T.);
#990 = EDGE_LOOP('',(#991,#997,#998,#999));
#991 = ORIENTED_EDGE('',*,*,#992,.F.);
#992 = EDGE_CURVE('',#450,#915,#993,.T.);
#993 = LINE('',#994,#995);
#994 = CARTESIAN_POINT('',(-31.33333333333,-78.66666666666,
    7.333333333333));
#995 = VECTOR('',#996,1.);
#996 = DIRECTION('',(0.57735026919,-0.57735026919,-0.57735026919));
#997 = ORIENTED_EDGE('',*,*,#457,.T.);
#998 = ORIENTED_EDGE('',*,*,#961,.T.);
#999 = ORIENTED_EDGE('',*,*,#1000,.F.);
#1000 = EDGE_CURVE('',#915,#962,#1001,.T.);
#1001 = LINE('',#1002,#1003);
#1002 = CARTESIAN_POINT('',(-24.,-86.,1.275233827527E-13));
#1003 = VECTOR('',#1004,1.);
#1004 = DIRECTION('',(2.098321516542E-31,1.,-2.001022302463E-15));
#1005 = PLANE('',#1006);
#1006 = AXIS2_PLACEMENT_3D('',#1007,#1008,#1009);
#1007 = CARTESIAN_POINT('',(-24.5,-86.,0.5));
#1008 = DIRECTION('',(0.707106781187,-1.214953770658E-16,0.707106781187)
  );
#1009 = DIRECTION('',(-1.081421356237E-15,-1.,9.096009462252E-16));
#1010 = ADVANCED_FACE('',(#1011),#1030,.T.);
#1011 = FACE_BOUND('',#1012,.T.);
#1012 = EDGE_LOOP('',(#1013,#1014,#1015,#1023));
#1013 = ORIENTED_EDGE('',*,*,#970,.F.);
#1014 = ORIENTED_EDGE('',*,*,#413,.T.);
#1015 = ORIENTED_EDGE('',*,*,#1016,.T.);
#1016 = EDGE_CURVE('',#414,#1017,#1019,.T.);
#1017 = VERTEX_POINT('',#1018);
#1018 = CARTESIAN_POINT('',(-24.,-5.,20.));
#1019 = LINE('',#1020,#1021);
#1020 = CARTESIAN_POINT('',(-24.,-5.,20.));
#1021 = VECTOR('',#1022,1.);
#1022 = DIRECTION('',(0.707106781187,-7.161495377066E-15,0.707106781187)
  );
#1023 = ORIENTED_EDGE('',*,*,#1024,.F.);
#1024 = EDGE_CURVE('',#971,#1017,#1025,.T.);
#1025 = CIRCLE('',#1026,5.);
#1026 = AXIS2_PLACEMENT_3D('',#1027,#1028,#1029);
#1027 = CARTESIAN_POINT('',(-24.,-5.,15.));
#1028 = DIRECTION('',(1.,2.221581032982E-31,2.001022302463E-15));
#1029 = DIRECTION('',(-3.127597858749E-29,1.,1.551897769754E-14));
#1030 = CONICAL_SURFACE('',#1031,5.,0.785398163397);
#1031 = AXIS2_PLACEMENT_3D('',#1032,#1033,#1034);
#1032 = CARTESIAN_POINT('',(-24.,-5.,15.));
#1033 = DIRECTION('',(1.,2.221581032982E-31,2.001022302463E-15));
#1034 = DIRECTION('',(-3.127597858749E-29,1.,1.551897769754E-14));
#1035 = ADVANCED_FACE('',(#1036),#1042,.F.);
#1036 = FACE_BOUND('',#1037,.T.);
#1037 = EDGE_LOOP('',(#1038,#1039,#1040,#1041));
#1038 = ORIENTED_EDGE('',*,*,#898,.F.);
#1039 = ORIENTED_EDGE('',*,*,#449,.T.);
#1040 = ORIENTED_EDGE('',*,*,#992,.T.);
#1041 = ORIENTED_EDGE('',*,*,#914,.F.);
#1042 = PLANE('',#1043);
#1043 = AXIS2_PLACEMENT_3D('',#1044,#1045,#1046);
#1044 = CARTESIAN_POINT('',(-24.5,-85.5,42.));
#1045 = DIRECTION('',(0.707106781187,0.707106781187,-5.E-16));
#1046 = DIRECTION('',(-9.774689118692E-16,1.684575693056E-15,1.));
#1047 = ADVANCED_FACE('',(#1048),#1059,.F.);
#1048 = FACE_BOUND('',#1049,.T.);
#1049 = EDGE_LOOP('',(#1050,#1051,#1052,#1053));
#1050 = ORIENTED_EDGE('',*,*,#1016,.F.);
#1051 = ORIENTED_EDGE('',*,*,#422,.T.);
#1052 = ORIENTED_EDGE('',*,*,#944,.T.);
#1053 = ORIENTED_EDGE('',*,*,#1054,.F.);
#1054 = EDGE_CURVE('',#1017,#684,#1055,.T.);
#1055 = LINE('',#1056,#1057);
#1056 = CARTESIAN_POINT('',(-24.,-5.,20.));
#1057 = VECTOR('',#1058,1.);
#1058 = DIRECTION('',(-2.098321516542E-31,-1.,2.001022302463E-15));
#1059 = PLANE('',#1060);
#1060 = AXIS2_PLACEMENT_3D('',#1061,#1062,#1063);
#1061 = CARTESIAN_POINT('',(-24.5,-5.,19.5));
#1062 = DIRECTION('',(0.707106781187,-1.848504622934E-15,-0.707106781187
    ));
#1063 = DIRECTION('',(3.115790027002E-16,1.,-2.302601305163E-15));
#1064 = ADVANCED_FACE('',(#1065),#1084,.F.);
#1065 = FACE_BOUND('',#1066,.T.);
#1066 = EDGE_LOOP('',(#1067,#1075,#1076,#1077));
#1067 = ORIENTED_EDGE('',*,*,#1068,.F.);
#1068 = EDGE_CURVE('',#466,#1069,#1071,.T.);
#1069 = VERTEX_POINT('',#1070);
#1070 = CARTESIAN_POINT('',(-5.,-15.,10.));
#1071 = LINE('',#1072,#1073);
#1072 = CARTESIAN_POINT('',(-25.,-15.,10.));
#1073 = VECTOR('',#1074,1.);
#1074 = DIRECTION('',(1.,-2.2E-16,1.110223024625E-16));
#1075 = ORIENTED_EDGE('',*,*,#465,.T.);
#1076 = ORIENTED_EDGE('',*,*,#1068,.T.);
#1077 = ORIENTED_EDGE('',*,*,#1078,.F.);
#1078 = EDGE_CURVE('',#1069,#1069,#1079,.T.);
#1079 = CIRCLE('',#1080,5.);
#1080 = AXIS2_PLACEMENT_3D('',#1081,#1082,#1083);
#1081 = CARTESIAN_POINT('',(-5.,-10.,10.));
#1082 = DIRECTION('',(-1.,2.2E-16,-1.110223024625E-16));
#1083 = DIRECTION('',(-2.2E-16,-1.,1.110223024625E-16));
#1084 = CYLINDRICAL_SURFACE('',#1085,5.);
#1085 = AXIS2_PLACEMENT_3D('',#1086,#1087,#1088);
#1086 = CARTESIAN_POINT('',(-25.,-10.,10.));
#1087 = DIRECTION('',(1.,-2.2E-16,1.110223024625E-16));
#1088 = DIRECTION('',(-2.2E-16,-1.,1.110223024625E-16));
#1089 = ADVANCED_FACE('',(#1090),#1109,.F.);
#1090 = FACE_BOUND('',#1091,.T.);
#1091 = EDGE_LOOP('',(#1092,#1100,#1107,#1108));
#1092 = ORIENTED_EDGE('',*,*,#1093,.F.);
#1093 = EDGE_CURVE('',#1094,#477,#1096,.T.);
#1094 = VERTEX_POINT('',#1095);
#1095 = CARTESIAN_POINT('',(-20.,-33.7,6.));
#1096 = LINE('',#1097,#1098);
#1097 = CARTESIAN_POINT('',(-20.,-33.7,6.));
#1098 = VECTOR('',#1099,1.);
#1099 = DIRECTION('',(-1.,2.2E-16,-1.110223024625E-16));
#1100 = ORIENTED_EDGE('',*,*,#1101,.T.);
#1101 = EDGE_CURVE('',#1094,#1094,#1102,.T.);
#1102 = CIRCLE('',#1103,1.8);
#1103 = AXIS2_PLACEMENT_3D('',#1104,#1105,#1106);
#1104 = CARTESIAN_POINT('',(-20.,-35.5,6.));
#1105 = DIRECTION('',(1.,-2.2E-16,1.110223024625E-16));
#1106 = DIRECTION('',(2.2E-16,1.,-1.110223024625E-16));
#1107 = ORIENTED_EDGE('',*,*,#1093,.T.);
#1108 = ORIENTED_EDGE('',*,*,#476,.F.);
#1109 = CYLINDRICAL_SURFACE('',#1110,1.8);
#1110 = AXIS2_PLACEMENT_3D('',#1111,#1112,#1113);
#1111 = CARTESIAN_POINT('',(-20.,-35.5,6.));
#1112 = DIRECTION('',(-1.,2.2E-16,-1.110223024625E-16));
#1113 = DIRECTION('',(2.2E-16,1.,-1.110223024625E-16));
#1114 = ADVANCED_FACE('',(#1115),#1134,.F.);
#1115 = FACE_BOUND('',#1116,.T.);
#1116 = EDGE_LOOP('',(#1117,#1125,#1132,#1133));
#1117 = ORIENTED_EDGE('',*,*,#1118,.F.);
#1118 = EDGE_CURVE('',#1119,#488,#1121,.T.);
#1119 = VERTEX_POINT('',#1120);
#1120 = CARTESIAN_POINT('',(-20.,-33.7,37.));
#1121 = LINE('',#1122,#1123);
#1122 = CARTESIAN_POINT('',(-20.,-33.7,37.));
#1123 = VECTOR('',#1124,1.);
#1124 = DIRECTION('',(-1.,2.2E-16,-1.110223024625E-16));
#1125 = ORIENTED_EDGE('',*,*,#1126,.T.);
#1126 = EDGE_CURVE('',#1119,#1119,#1127,.T.);
#1127 = CIRCLE('',#1128,1.8);
#1128 = AXIS2_PLACEMENT_3D('',#1129,#1130,#1131);
#1129 = CARTESIAN_POINT('',(-20.,-35.5,37.));
#1130 = DIRECTION('',(1.,-2.2E-16,1.110223024625E-16));
#1131 = DIRECTION('',(2.2E-16,1.,-1.110223024625E-16));
#1132 = ORIENTED_EDGE('',*,*,#1118,.T.);
#1133 = ORIENTED_EDGE('',*,*,#487,.F.);
#1134 = CYLINDRICAL_SURFACE('',#1135,1.8);
#1135 = AXIS2_PLACEMENT_3D('',#1136,#1137,#1138);
#1136 = CARTESIAN_POINT('',(-20.,-35.5,37.));
#1137 = DIRECTION('',(-1.,2.2E-16,-1.110223024625E-16));
#1138 = DIRECTION('',(2.2E-16,1.,-1.110223024625E-16));
#1139 = ADVANCED_FACE('',(#1140),#1159,.F.);
#1140 = FACE_BOUND('',#1141,.T.);
#1141 = EDGE_LOOP('',(#1142,#1150,#1157,#1158));
#1142 = ORIENTED_EDGE('',*,*,#1143,.F.);
#1143 = EDGE_CURVE('',#1144,#510,#1146,.T.);
#1144 = VERTEX_POINT('',#1145);
#1145 = CARTESIAN_POINT('',(-20.,-64.7,6.));
#1146 = LINE('',#1147,#1148);
#1147 = CARTESIAN_POINT('',(-20.,-64.7,6.));
#1148 = VECTOR('',#1149,1.);
#1149 = DIRECTION('',(-1.,2.2E-16,-1.110223024625E-16));
#1150 = ORIENTED_EDGE('',*,*,#1151,.T.);
#1151 = EDGE_CURVE('',#1144,#1144,#1152,.T.);
#1152 = CIRCLE('',#1153,1.8);
#1153 = AXIS2_PLACEMENT_3D('',#1154,#1155,#1156);
#1154 = CARTESIAN_POINT('',(-20.,-66.5,6.));
#1155 = DIRECTION('',(1.,-2.2E-16,1.110223024625E-16));
#1156 = DIRECTION('',(2.2E-16,1.,-1.110223024625E-16));
#1157 = ORIENTED_EDGE('',*,*,#1143,.T.);
#1158 = ORIENTED_EDGE('',*,*,#509,.F.);
#1159 = CYLINDRICAL_SURFACE('',#1160,1.8);
#1160 = AXIS2_PLACEMENT_3D('',#1161,#1162,#1163);
#1161 = CARTESIAN_POINT('',(-20.,-66.5,6.));
#1162 = DIRECTION('',(-1.,2.2E-16,-1.110223024625E-16));
#1163 = DIRECTION('',(2.2E-16,1.,-1.110223024625E-16));
#1164 = ADVANCED_FACE('',(#1165),#1184,.F.);
#1165 = FACE_BOUND('',#1166,.T.);
#1166 = EDGE_LOOP('',(#1167,#1175,#1176,#1177));
#1167 = ORIENTED_EDGE('',*,*,#1168,.F.);
#1168 = EDGE_CURVE('',#521,#1169,#1171,.T.);
#1169 = VERTEX_POINT('',#1170);
#1170 = CARTESIAN_POINT('',(-5.,-83.,10.));
#1171 = LINE('',#1172,#1173);
#1172 = CARTESIAN_POINT('',(-25.,-83.,10.));
#1173 = VECTOR('',#1174,1.);
#1174 = DIRECTION('',(1.,-2.2E-16,1.110223024625E-16));
#1175 = ORIENTED_EDGE('',*,*,#520,.T.);
#1176 = ORIENTED_EDGE('',*,*,#1168,.T.);
#1177 = ORIENTED_EDGE('',*,*,#1178,.F.);
#1178 = EDGE_CURVE('',#1169,#1169,#1179,.T.);
#1179 = CIRCLE('',#1180,5.);
#1180 = AXIS2_PLACEMENT_3D('',#1181,#1182,#1183);
#1181 = CARTESIAN_POINT('',(-5.,-78.,10.));
#1182 = DIRECTION('',(-1.,2.2E-16,-1.110223024625E-16));
#1183 = DIRECTION('',(-2.2E-16,-1.,1.110223024625E-16));
#1184 = CYLINDRICAL_SURFACE('',#1185,5.);
#1185 = AXIS2_PLACEMENT_3D('',#1186,#1187,#1188);
#1186 = CARTESIAN_POINT('',(-25.,-78.,10.));
#1187 = DIRECTION('',(1.,-2.2E-16,1.110223024625E-16));
#1188 = DIRECTION('',(-2.2E-16,-1.,1.110223024625E-16));
#1189 = ADVANCED_FACE('',(#1190),#1209,.F.);
#1190 = FACE_BOUND('',#1191,.T.);
#1191 = EDGE_LOOP('',(#1192,#1200,#1207,#1208));
#1192 = ORIENTED_EDGE('',*,*,#1193,.F.);
#1193 = EDGE_CURVE('',#1194,#532,#1196,.T.);
#1194 = VERTEX_POINT('',#1195);
#1195 = CARTESIAN_POINT('',(-20.,-64.7,37.));
#1196 = LINE('',#1197,#1198);
#1197 = CARTESIAN_POINT('',(-20.,-64.7,37.));
#1198 = VECTOR('',#1199,1.);
#1199 = DIRECTION('',(-1.,2.2E-16,-1.110223024625E-16));
#1200 = ORIENTED_EDGE('',*,*,#1201,.T.);
#1201 = EDGE_CURVE('',#1194,#1194,#1202,.T.);
#1202 = CIRCLE('',#1203,1.8);
#1203 = AXIS2_PLACEMENT_3D('',#1204,#1205,#1206);
#1204 = CARTESIAN_POINT('',(-20.,-66.5,37.));
#1205 = DIRECTION('',(1.,-2.2E-16,1.110223024625E-16));
#1206 = DIRECTION('',(2.2E-16,1.,-1.110223024625E-16));
#1207 = ORIENTED_EDGE('',*,*,#1193,.T.);
#1208 = ORIENTED_EDGE('',*,*,#531,.F.);
#1209 = CYLINDRICAL_SURFACE('',#1210,1.8);
#1210 = AXIS2_PLACEMENT_3D('',#1211,#1212,#1213);
#1211 = CARTESIAN_POINT('',(-20.,-66.5,37.));
#1212 = DIRECTION('',(-1.,2.2E-16,-1.110223024625E-16));
#1213 = DIRECTION('',(2.2E-16,1.,-1.110223024625E-16));
#1214 = ADVANCED_FACE('',(#1215),#1234,.F.);
#1215 = FACE_BOUND('',#1216,.T.);
#1216 = EDGE_LOOP('',(#1217,#1225,#1226,#1227));
#1217 = ORIENTED_EDGE('',*,*,#1218,.F.);
#1218 = EDGE_CURVE('',#543,#1219,#1221,.T.);
#1219 = VERTEX_POINT('',#1220);
#1220 = CARTESIAN_POINT('',(-5.,-83.,40.));
#1221 = LINE('',#1222,#1223);
#1222 = CARTESIAN_POINT('',(-25.,-83.,40.));
#1223 = VECTOR('',#1224,1.);
#1224 = DIRECTION('',(1.,-2.2E-16,1.110223024625E-16));
#1225 = ORIENTED_EDGE('',*,*,#542,.T.);
#1226 = ORIENTED_EDGE('',*,*,#1218,.T.);
#1227 = ORIENTED_EDGE('',*,*,#1228,.F.);
#1228 = EDGE_CURVE('',#1219,#1219,#1229,.T.);
#1229 = CIRCLE('',#1230,5.);
#1230 = AXIS2_PLACEMENT_3D('',#1231,#1232,#1233);
#1231 = CARTESIAN_POINT('',(-5.,-78.,40.));
#1232 = DIRECTION('',(-1.,2.2E-16,-1.110223024625E-16));
#1233 = DIRECTION('',(-2.2E-16,-1.,1.110223024625E-16));
#1234 = CYLINDRICAL_SURFACE('',#1235,5.);
#1235 = AXIS2_PLACEMENT_3D('',#1236,#1237,#1238);
#1236 = CARTESIAN_POINT('',(-25.,-78.,40.));
#1237 = DIRECTION('',(1.,-2.2E-16,1.110223024625E-16));
#1238 = DIRECTION('',(-2.2E-16,-1.,1.110223024625E-16));
#1239 = ADVANCED_FACE('',(#1240),#1266,.F.);
#1240 = FACE_BOUND('',#1241,.F.);
#1241 = EDGE_LOOP('',(#1242,#1252,#1258,#1259,#1260));
#1242 = ORIENTED_EDGE('',*,*,#1243,.F.);
#1243 = EDGE_CURVE('',#1244,#1246,#1248,.T.);
#1244 = VERTEX_POINT('',#1245);
#1245 = CARTESIAN_POINT('',(-11.,-20.,20.));
#1246 = VERTEX_POINT('',#1247);
#1247 = CARTESIAN_POINT('',(-11.,-20.,2.));
#1248 = LINE('',#1249,#1250);
#1249 = CARTESIAN_POINT('',(-11.,-20.,50.));
#1250 = VECTOR('',#1251,1.);
#1251 = DIRECTION('',(1.781022302463E-15,-1.110223024625E-16,-1.));
#1252 = ORIENTED_EDGE('',*,*,#1253,.F.);
#1253 = EDGE_CURVE('',#594,#1244,#1254,.T.);
#1254 = LINE('',#1255,#1256);
#1255 = CARTESIAN_POINT('',(-11.,-17.5,20.));
#1256 = VECTOR('',#1257,1.);
#1257 = DIRECTION('',(-2.2E-16,1.,-8.910223024625E-16));
#1258 = ORIENTED_EDGE('',*,*,#601,.T.);
#1259 = ORIENTED_EDGE('',*,*,#576,.T.);
#1260 = ORIENTED_EDGE('',*,*,#1261,.T.);
#1261 = EDGE_CURVE('',#569,#1246,#1262,.T.);
#1262 = LINE('',#1263,#1264);
#1263 = CARTESIAN_POINT('',(-11.,-30.,2.));
#1264 = VECTOR('',#1265,1.);
#1265 = DIRECTION('',(0.,1.,-1.110223024625E-16));
#1266 = PLANE('',#1267);
#1267 = AXIS2_PLACEMENT_3D('',#1268,#1269,#1270);
#1268 = CARTESIAN_POINT('',(-11.,-30.,50.));
#1269 = DIRECTION('',(1.,2.2E-16,1.781022302463E-15));
#1270 = DIRECTION('',(-2.2E-16,1.,-3.310223024625E-16));
#1271 = ADVANCED_FACE('',(#1272),#1290,.T.);
#1272 = FACE_BOUND('',#1273,.T.);
#1273 = EDGE_LOOP('',(#1274,#1275,#1283,#1289));
#1274 = ORIENTED_EDGE('',*,*,#1261,.T.);
#1275 = ORIENTED_EDGE('',*,*,#1276,.T.);
#1276 = EDGE_CURVE('',#1246,#1277,#1279,.T.);
#1277 = VERTEX_POINT('',#1278);
#1278 = CARTESIAN_POINT('',(-21.,-20.,2.));
#1279 = LINE('',#1280,#1281);
#1280 = CARTESIAN_POINT('',(-11.,-20.,2.));
#1281 = VECTOR('',#1282,1.);
#1282 = DIRECTION('',(-1.,-1.233482541066E-31,-1.111022302463E-15));
#1283 = ORIENTED_EDGE('',*,*,#1284,.T.);
#1284 = EDGE_CURVE('',#1277,#561,#1285,.T.);
#1285 = LINE('',#1286,#1287);
#1286 = CARTESIAN_POINT('',(-21.,-20.,2.));
#1287 = VECTOR('',#1288,1.);
#1288 = DIRECTION('',(-0.,-1.,1.110223024625E-16));
#1289 = ORIENTED_EDGE('',*,*,#568,.T.);
#1290 = PLANE('',#1291);
#1291 = AXIS2_PLACEMENT_3D('',#1292,#1293,#1294);
#1292 = CARTESIAN_POINT('',(-16.,-25.,2.));
#1293 = DIRECTION('',(-1.531022302463E-15,1.110223024625E-16,1.));
#1294 = DIRECTION('',(1.,1.699776211409E-31,1.531022302463E-15));
#1295 = ADVANCED_FACE('',(#1296),#1315,.F.);
#1296 = FACE_BOUND('',#1297,.F.);
#1297 = EDGE_LOOP('',(#1298,#1306,#1312,#1313,#1314));
#1298 = ORIENTED_EDGE('',*,*,#1299,.F.);
#1299 = EDGE_CURVE('',#1300,#682,#1302,.T.);
#1300 = VERTEX_POINT('',#1301);
#1301 = CARTESIAN_POINT('',(-21.,-20.,20.));
#1302 = LINE('',#1303,#1304);
#1303 = CARTESIAN_POINT('',(-21.,-12.5,20.));
#1304 = VECTOR('',#1305,1.);
#1305 = DIRECTION('',(2.2E-16,-1.,8.910223024625E-16));
#1306 = ORIENTED_EDGE('',*,*,#1307,.T.);
#1307 = EDGE_CURVE('',#1300,#1277,#1308,.T.);
#1308 = LINE('',#1309,#1310);
#1309 = CARTESIAN_POINT('',(-21.,-20.,50.));
#1310 = VECTOR('',#1311,1.);
#1311 = DIRECTION('',(1.781022302463E-15,-1.110223024625E-16,-1.));
#1312 = ORIENTED_EDGE('',*,*,#1284,.T.);
#1313 = ORIENTED_EDGE('',*,*,#560,.F.);
#1314 = ORIENTED_EDGE('',*,*,#691,.T.);
#1315 = PLANE('',#1316);
#1316 = AXIS2_PLACEMENT_3D('',#1317,#1318,#1319);
#1317 = CARTESIAN_POINT('',(-21.,-20.,50.));
#1318 = DIRECTION('',(-1.,-2.2E-16,-1.781022302463E-15));
#1319 = DIRECTION('',(2.2E-16,-1.,3.310223024625E-16));
#1320 = ADVANCED_FACE('',(#1321),#1348,.T.);
#1321 = FACE_BOUND('',#1322,.T.);
#1322 = EDGE_LOOP('',(#1323,#1324,#1332,#1338,#1339,#1340,#1341,#1347));
#1323 = ORIENTED_EDGE('',*,*,#591,.F.);
#1324 = ORIENTED_EDGE('',*,*,#1325,.T.);
#1325 = EDGE_CURVE('',#592,#1326,#1328,.T.);
#1326 = VERTEX_POINT('',#1327);
#1327 = CARTESIAN_POINT('',(-1.,-5.,20.));
#1328 = LINE('',#1329,#1330);
#1329 = CARTESIAN_POINT('',(-1.,-25.,20.));
#1330 = VECTOR('',#1331,1.);
#1331 = DIRECTION('',(2.098321516542E-31,1.,-2.001022302463E-15));
#1332 = ORIENTED_EDGE('',*,*,#1333,.T.);
#1333 = EDGE_CURVE('',#1326,#1017,#1334,.T.);
#1334 = LINE('',#1335,#1336);
#1335 = CARTESIAN_POINT('',(-6.66044604925E-15,-5.,20.));
#1336 = VECTOR('',#1337,1.);
#1337 = DIRECTION('',(-1.,2.2E-16,-1.110223024625E-16));
#1338 = ORIENTED_EDGE('',*,*,#1054,.T.);
#1339 = ORIENTED_EDGE('',*,*,#681,.F.);
#1340 = ORIENTED_EDGE('',*,*,#1299,.F.);
#1341 = ORIENTED_EDGE('',*,*,#1342,.F.);
#1342 = EDGE_CURVE('',#1244,#1300,#1343,.T.);
#1343 = LINE('',#1344,#1345);
#1344 = CARTESIAN_POINT('',(-5.5,-20.,20.));
#1345 = VECTOR('',#1346,1.);
#1346 = DIRECTION('',(-1.,-1.977331967565E-31,-1.781022302463E-15));
#1347 = ORIENTED_EDGE('',*,*,#1253,.F.);
#1348 = PLANE('',#1349);
#1349 = AXIS2_PLACEMENT_3D('',#1350,#1351,#1352);
#1350 = CARTESIAN_POINT('',(-6.66044604925E-15,-5.,20.));
#1351 = DIRECTION('',(-1.110223024625E-16,3.310223024625E-16,1.));
#1352 = DIRECTION('',(-2.442490654175E-32,-1.,3.310223024625E-16));
#1353 = ADVANCED_FACE('',(#1354),#1370,.T.);
#1354 = FACE_BOUND('',#1355,.T.);
#1355 = EDGE_LOOP('',(#1356,#1362,#1363,#1369));
#1356 = ORIENTED_EDGE('',*,*,#1357,.T.);
#1357 = EDGE_CURVE('',#782,#592,#1358,.T.);
#1358 = LINE('',#1359,#1360);
#1359 = CARTESIAN_POINT('',(-0.509003771089,-24.90597002977,
    19.509003771089));
#1360 = VECTOR('',#1361,1.);
#1361 = DIRECTION('',(-0.700711230759,-0.134192183743,0.700711230759));
#1362 = ORIENTED_EDGE('',*,*,#616,.T.);
#1363 = ORIENTED_EDGE('',*,*,#1364,.T.);
#1364 = EDGE_CURVE('',#609,#790,#1365,.T.);
#1365 = LINE('',#1366,#1367);
#1366 = CARTESIAN_POINT('',(-0.5,-46.75113302082,10.81369430564));
#1367 = VECTOR('',#1368,1.);
#1368 = DIRECTION('',(0.707106781187,0.261252404638,-0.657074714984));
#1369 = ORIENTED_EDGE('',*,*,#789,.F.);
#1370 = PLANE('',#1371);
#1371 = AXIS2_PLACEMENT_3D('',#1372,#1373,#1374);
#1372 = CARTESIAN_POINT('',(-0.5,-24.81526665308,19.535378013289));
#1373 = DIRECTION('',(0.707106781187,-0.261252404638,0.657074714984));
#1374 = DIRECTION('',(-5.418480448948E-16,-0.929243973423,
    -0.369466693841));
#1375 = ADVANCED_FACE('',(#1376),#1382,.F.);
#1376 = FACE_BOUND('',#1377,.T.);
#1377 = EDGE_LOOP('',(#1378,#1379,#1380,#1381));
#1378 = ORIENTED_EDGE('',*,*,#1364,.F.);
#1379 = ORIENTED_EDGE('',*,*,#641,.T.);
#1380 = ORIENTED_EDGE('',*,*,#714,.T.);
#1381 = ORIENTED_EDGE('',*,*,#797,.F.);
#1382 = CONICAL_SURFACE('',#1383,11.,0.785398163397);
#1383 = AXIS2_PLACEMENT_3D('',#1384,#1385,#1386);
#1384 = CARTESIAN_POINT('',(-1.,-51.,21.5));
#1385 = DIRECTION('',(1.,2.221581032982E-31,2.001022302463E-15));
#1386 = DIRECTION('',(1.859437915247E-15,0.369466693841,-0.929243973423)
  );
#1387 = ADVANCED_FACE('',(#1388,#1391),#1394,.T.);
#1388 = FACE_BOUND('',#1389,.T.);
#1389 = EDGE_LOOP('',(#1390));
#1390 = ORIENTED_EDGE('',*,*,#665,.T.);
#1391 = FACE_BOUND('',#1392,.T.);
#1392 = EDGE_LOOP('',(#1393));
#1393 = ORIENTED_EDGE('',*,*,#1126,.F.);
#1394 = PLANE('',#1395);
#1395 = AXIS2_PLACEMENT_3D('',#1396,#1397,#1398);
#1396 = CARTESIAN_POINT('',(-20.,-35.5,37.));
#1397 = DIRECTION('',(1.,-2.2E-16,1.110223024625E-16));
#1398 = DIRECTION('',(2.2E-16,1.,-1.110223024625E-16));
#1399 = ADVANCED_FACE('',(#1400),#1411,.T.);
#1400 = FACE_BOUND('',#1401,.T.);
#1401 = EDGE_LOOP('',(#1402,#1403,#1404,#1410));
#1402 = ORIENTED_EDGE('',*,*,#881,.F.);
#1403 = ORIENTED_EDGE('',*,*,#930,.T.);
#1404 = ORIENTED_EDGE('',*,*,#1405,.T.);
#1405 = EDGE_CURVE('',#923,#749,#1406,.T.);
#1406 = LINE('',#1407,#1408);
#1407 = CARTESIAN_POINT('',(6.333333333333,-78.66666666666,
    7.333333333334));
#1408 = VECTOR('',#1409,1.);
#1409 = DIRECTION('',(0.57735026919,0.57735026919,0.57735026919));
#1410 = ORIENTED_EDGE('',*,*,#748,.F.);
#1411 = PLANE('',#1412);
#1412 = AXIS2_PLACEMENT_3D('',#1413,#1414,#1415);
#1413 = CARTESIAN_POINT('',(-0.5,-85.5,42.));
#1414 = DIRECTION('',(0.707106781187,-0.707106781187,1.547009245868E-15)
  );
#1415 = DIRECTION('',(1.758900728312E-15,-4.289007283118E-16,-1.));
#1416 = ADVANCED_FACE('',(#1417),#1435,.T.);
#1417 = FACE_BOUND('',#1418,.F.);
#1418 = EDGE_LOOP('',(#1419,#1420,#1421,#1429));
#1419 = ORIENTED_EDGE('',*,*,#1405,.T.);
#1420 = ORIENTED_EDGE('',*,*,#756,.T.);
#1421 = ORIENTED_EDGE('',*,*,#1422,.T.);
#1422 = EDGE_CURVE('',#757,#1423,#1425,.T.);
#1423 = VERTEX_POINT('',#1424);
#1424 = CARTESIAN_POINT('',(-1.,-9.9E-14,-1.111102230246E-14));
#1425 = LINE('',#1426,#1427);
#1426 = CARTESIAN_POINT('',(16.166666666667,-17.16666666666,
    17.166666666667));
#1427 = VECTOR('',#1428,1.);
#1428 = DIRECTION('',(-0.57735026919,0.57735026919,-0.57735026919));
#1429 = ORIENTED_EDGE('',*,*,#1430,.F.);
#1430 = EDGE_CURVE('',#923,#1423,#1431,.T.);
#1431 = LINE('',#1432,#1433);
#1432 = CARTESIAN_POINT('',(-1.,-86.,1.711068957093E-13));
#1433 = VECTOR('',#1434,1.);
#1434 = DIRECTION('',(2.098321516542E-31,1.,-2.001022302463E-15));
#1435 = PLANE('',#1436);
#1436 = AXIS2_PLACEMENT_3D('',#1437,#1438,#1439);
#1437 = CARTESIAN_POINT('',(-0.5,-86.,0.5));
#1438 = DIRECTION('',(0.707106781187,-1.578504622934E-15,-0.707106781187
    ));
#1439 = DIRECTION('',(-1.206601717798E-16,-1.,2.111682474242E-15));
#1440 = ADVANCED_FACE('',(#1441),#1452,.T.);
#1441 = FACE_BOUND('',#1442,.T.);
#1442 = EDGE_LOOP('',(#1443,#1444,#1445,#1451));
#1443 = ORIENTED_EDGE('',*,*,#1357,.F.);
#1444 = ORIENTED_EDGE('',*,*,#781,.T.);
#1445 = ORIENTED_EDGE('',*,*,#1446,.T.);
#1446 = EDGE_CURVE('',#773,#1326,#1447,.T.);
#1447 = LINE('',#1448,#1449);
#1448 = CARTESIAN_POINT('',(-0.5,-5.,19.5));
#1449 = VECTOR('',#1450,1.);
#1450 = DIRECTION('',(-0.707106781187,1.408504622934E-15,0.707106781187)
  );
#1451 = ORIENTED_EDGE('',*,*,#1325,.F.);
#1452 = PLANE('',#1453);
#1453 = AXIS2_PLACEMENT_3D('',#1454,#1455,#1456);
#1454 = CARTESIAN_POINT('',(-0.5,-25.,19.5));
#1455 = DIRECTION('',(0.707106781187,-3.514953770658E-16,0.707106781187)
  );
#1456 = DIRECTION('',(1.24905591591E-15,1.,-7.519663865523E-16));
#1457 = ADVANCED_FACE('',(#1458),#1476,.F.);
#1458 = FACE_BOUND('',#1459,.T.);
#1459 = EDGE_LOOP('',(#1460,#1468,#1469,#1470));
#1460 = ORIENTED_EDGE('',*,*,#1461,.F.);
#1461 = EDGE_CURVE('',#765,#1462,#1464,.T.);
#1462 = VERTEX_POINT('',#1463);
#1463 = CARTESIAN_POINT('',(-1.,1.566533453694E-14,15.));
#1464 = LINE('',#1465,#1466);
#1465 = CARTESIAN_POINT('',(-1.,1.587533453694E-14,15.));
#1466 = VECTOR('',#1467,1.);
#1467 = DIRECTION('',(-0.707106781187,0.707106781187,-6.700924586838E-17
    ));
#1468 = ORIENTED_EDGE('',*,*,#764,.T.);
#1469 = ORIENTED_EDGE('',*,*,#1422,.T.);
#1470 = ORIENTED_EDGE('',*,*,#1471,.F.);
#1471 = EDGE_CURVE('',#1462,#1423,#1472,.T.);
#1472 = LINE('',#1473,#1474);
#1473 = CARTESIAN_POINT('',(-1.,1.290533453694E-14,15.));
#1474 = VECTOR('',#1475,1.);
#1475 = DIRECTION('',(2.001022302463E-15,-6.710223024625E-16,-1.));
#1476 = PLANE('',#1477);
#1477 = AXIS2_PLACEMENT_3D('',#1478,#1479,#1480);
#1478 = CARTESIAN_POINT('',(-0.5,-0.5,15.));
#1479 = DIRECTION('',(-0.707106781187,-0.707106781187,7.8E-16));
#1480 = DIRECTION('',(-7.84479013137E-16,1.887565591788E-15,1.));
#1481 = ADVANCED_FACE('',(#1482),#1494,.T.);
#1482 = FACE_BOUND('',#1483,.T.);
#1483 = EDGE_LOOP('',(#1484,#1485,#1486,#1487));
#1484 = ORIENTED_EDGE('',*,*,#1446,.F.);
#1485 = ORIENTED_EDGE('',*,*,#772,.T.);
#1486 = ORIENTED_EDGE('',*,*,#1461,.T.);
#1487 = ORIENTED_EDGE('',*,*,#1488,.F.);
#1488 = EDGE_CURVE('',#1326,#1462,#1489,.T.);
#1489 = CIRCLE('',#1490,5.);
#1490 = AXIS2_PLACEMENT_3D('',#1491,#1492,#1493);
#1491 = CARTESIAN_POINT('',(-1.,-5.,15.));
#1492 = DIRECTION('',(-1.,-2.221581032982E-31,-2.001022302463E-15));
#1493 = DIRECTION('',(-2.001022302463E-15,-1.838977697537E-15,1.));
#1494 = CONICAL_SURFACE('',#1495,5.,0.785398163397);
#1495 = AXIS2_PLACEMENT_3D('',#1496,#1497,#1498);
#1496 = CARTESIAN_POINT('',(-1.,-5.,15.));
#1497 = DIRECTION('',(-1.,-2.221581032982E-31,-2.001022302463E-15));
#1498 = DIRECTION('',(-2.001022302463E-15,-1.838977697537E-15,1.));
#1499 = ADVANCED_FACE('',(#1500),#1519,.F.);
#1500 = FACE_BOUND('',#1501,.T.);
#1501 = EDGE_LOOP('',(#1502,#1510,#1517,#1518));
#1502 = ORIENTED_EDGE('',*,*,#1503,.F.);
#1503 = EDGE_CURVE('',#1504,#808,#1506,.T.);
#1504 = VERTEX_POINT('',#1505);
#1505 = CARTESIAN_POINT('',(-5.,-12.25,10.));
#1506 = LINE('',#1507,#1508);
#1507 = CARTESIAN_POINT('',(-5.,-12.25,10.));
#1508 = VECTOR('',#1509,1.);
#1509 = DIRECTION('',(1.,-1.6E-16,1.110223024625E-16));
#1510 = ORIENTED_EDGE('',*,*,#1511,.T.);
#1511 = EDGE_CURVE('',#1504,#1504,#1512,.T.);
#1512 = CIRCLE('',#1513,2.25);
#1513 = AXIS2_PLACEMENT_3D('',#1514,#1515,#1516);
#1514 = CARTESIAN_POINT('',(-5.,-10.,10.));
#1515 = DIRECTION('',(-1.,2.2E-16,-1.110223024625E-16));
#1516 = DIRECTION('',(-2.2E-16,-1.,1.110223024625E-16));
#1517 = ORIENTED_EDGE('',*,*,#1503,.T.);
#1518 = ORIENTED_EDGE('',*,*,#807,.T.);
#1519 = CYLINDRICAL_SURFACE('',#1520,2.25);
#1520 = AXIS2_PLACEMENT_3D('',#1521,#1522,#1523);
#1521 = CARTESIAN_POINT('',(-5.,-10.,10.));
#1522 = DIRECTION('',(1.,-2.2E-16,1.110223024625E-16));
#1523 = DIRECTION('',(-2.2E-16,-1.,1.110223024625E-16));
#1524 = ADVANCED_FACE('',(#1525),#1544,.F.);
#1525 = FACE_BOUND('',#1526,.T.);
#1526 = EDGE_LOOP('',(#1527,#1535,#1536,#1537));
#1527 = ORIENTED_EDGE('',*,*,#1528,.F.);
#1528 = EDGE_CURVE('',#819,#1529,#1531,.T.);
#1529 = VERTEX_POINT('',#1530);
#1530 = CARTESIAN_POINT('',(-20.,-31.5,6.));
#1531 = LINE('',#1532,#1533);
#1532 = CARTESIAN_POINT('',(2.13162820728E-14,-31.5,6.));
#1533 = VECTOR('',#1534,1.);
#1534 = DIRECTION('',(-1.,2.2E-16,-1.110223024625E-16));
#1535 = ORIENTED_EDGE('',*,*,#818,.T.);
#1536 = ORIENTED_EDGE('',*,*,#1528,.T.);
#1537 = ORIENTED_EDGE('',*,*,#1538,.F.);
#1538 = EDGE_CURVE('',#1529,#1529,#1539,.T.);
#1539 = CIRCLE('',#1540,4.);
#1540 = AXIS2_PLACEMENT_3D('',#1541,#1542,#1543);
#1541 = CARTESIAN_POINT('',(-20.,-35.5,6.));
#1542 = DIRECTION('',(1.,-2.2E-16,1.110223024625E-16));
#1543 = DIRECTION('',(2.2E-16,1.,-1.110223024625E-16));
#1544 = CYLINDRICAL_SURFACE('',#1545,4.);
#1545 = AXIS2_PLACEMENT_3D('',#1546,#1547,#1548);
#1546 = CARTESIAN_POINT('',(2.13162820728E-14,-35.5,6.));
#1547 = DIRECTION('',(-1.,2.2E-16,-1.110223024625E-16));
#1548 = DIRECTION('',(2.2E-16,1.,-1.110223024625E-16));
#1549 = ADVANCED_FACE('',(#1550),#1569,.F.);
#1550 = FACE_BOUND('',#1551,.T.);
#1551 = EDGE_LOOP('',(#1552,#1560,#1561,#1562));
#1552 = ORIENTED_EDGE('',*,*,#1553,.F.);
#1553 = EDGE_CURVE('',#830,#1554,#1556,.T.);
#1554 = VERTEX_POINT('',#1555);
#1555 = CARTESIAN_POINT('',(-20.,-62.5,6.));
#1556 = LINE('',#1557,#1558);
#1557 = CARTESIAN_POINT('',(1.42108547152E-14,-62.5,6.));
#1558 = VECTOR('',#1559,1.);
#1559 = DIRECTION('',(-1.,2.2E-16,-1.110223024625E-16));
#1560 = ORIENTED_EDGE('',*,*,#829,.T.);
#1561 = ORIENTED_EDGE('',*,*,#1553,.T.);
#1562 = ORIENTED_EDGE('',*,*,#1563,.F.);
#1563 = EDGE_CURVE('',#1554,#1554,#1564,.T.);
#1564 = CIRCLE('',#1565,4.);
#1565 = AXIS2_PLACEMENT_3D('',#1566,#1567,#1568);
#1566 = CARTESIAN_POINT('',(-20.,-66.5,6.));
#1567 = DIRECTION('',(1.,-2.2E-16,1.110223024625E-16));
#1568 = DIRECTION('',(2.2E-16,1.,-1.110223024625E-16));
#1569 = CYLINDRICAL_SURFACE('',#1570,4.);
#1570 = AXIS2_PLACEMENT_3D('',#1571,#1572,#1573);
#1571 = CARTESIAN_POINT('',(1.42108547152E-14,-66.5,6.));
#1572 = DIRECTION('',(-1.,2.2E-16,-1.110223024625E-16));
#1573 = DIRECTION('',(2.2E-16,1.,-1.110223024625E-16));
#1574 = ADVANCED_FACE('',(#1575),#1594,.F.);
#1575 = FACE_BOUND('',#1576,.T.);
#1576 = EDGE_LOOP('',(#1577,#1585,#1592,#1593));
#1577 = ORIENTED_EDGE('',*,*,#1578,.F.);
#1578 = EDGE_CURVE('',#1579,#841,#1581,.T.);
#1579 = VERTEX_POINT('',#1580);
#1580 = CARTESIAN_POINT('',(-5.,-80.25,10.));
#1581 = LINE('',#1582,#1583);
#1582 = CARTESIAN_POINT('',(-5.,-80.25,10.));
#1583 = VECTOR('',#1584,1.);
#1584 = DIRECTION('',(1.,-1.6E-16,1.110223024625E-16));
#1585 = ORIENTED_EDGE('',*,*,#1586,.T.);
#1586 = EDGE_CURVE('',#1579,#1579,#1587,.T.);
#1587 = CIRCLE('',#1588,2.25);
#1588 = AXIS2_PLACEMENT_3D('',#1589,#1590,#1591);
#1589 = CARTESIAN_POINT('',(-5.,-78.,10.));
#1590 = DIRECTION('',(-1.,2.2E-16,-1.110223024625E-16));
#1591 = DIRECTION('',(-2.2E-16,-1.,1.110223024625E-16));
#1592 = ORIENTED_EDGE('',*,*,#1578,.T.);
#1593 = ORIENTED_EDGE('',*,*,#840,.T.);
#1594 = CYLINDRICAL_SURFACE('',#1595,2.25);
#1595 = AXIS2_PLACEMENT_3D('',#1596,#1597,#1598);
#1596 = CARTESIAN_POINT('',(-5.,-78.,10.));
#1597 = DIRECTION('',(1.,-2.2E-16,1.110223024625E-16));
#1598 = DIRECTION('',(-2.2E-16,-1.,1.110223024625E-16));
#1599 = ADVANCED_FACE('',(#1600),#1619,.F.);
#1600 = FACE_BOUND('',#1601,.T.);
#1601 = EDGE_LOOP('',(#1602,#1610,#1611,#1612));
#1602 = ORIENTED_EDGE('',*,*,#1603,.F.);
#1603 = EDGE_CURVE('',#852,#1604,#1606,.T.);
#1604 = VERTEX_POINT('',#1605);
#1605 = CARTESIAN_POINT('',(-20.,-62.5,37.));
#1606 = LINE('',#1607,#1608);
#1607 = CARTESIAN_POINT('',(1.42108547152E-14,-62.5,37.));
#1608 = VECTOR('',#1609,1.);
#1609 = DIRECTION('',(-1.,2.2E-16,-1.110223024625E-16));
#1610 = ORIENTED_EDGE('',*,*,#851,.T.);
#1611 = ORIENTED_EDGE('',*,*,#1603,.T.);
#1612 = ORIENTED_EDGE('',*,*,#1613,.F.);
#1613 = EDGE_CURVE('',#1604,#1604,#1614,.T.);
#1614 = CIRCLE('',#1615,4.);
#1615 = AXIS2_PLACEMENT_3D('',#1616,#1617,#1618);
#1616 = CARTESIAN_POINT('',(-20.,-66.5,37.));
#1617 = DIRECTION('',(1.,-2.2E-16,1.110223024625E-16));
#1618 = DIRECTION('',(2.2E-16,1.,-1.110223024625E-16));
#1619 = CYLINDRICAL_SURFACE('',#1620,4.);
#1620 = AXIS2_PLACEMENT_3D('',#1621,#1622,#1623);
#1621 = CARTESIAN_POINT('',(1.42108547152E-14,-66.5,37.));
#1622 = DIRECTION('',(-1.,2.2E-16,-1.110223024625E-16));
#1623 = DIRECTION('',(2.2E-16,1.,-1.110223024625E-16));
#1624 = ADVANCED_FACE('',(#1625),#1644,.F.);
#1625 = FACE_BOUND('',#1626,.T.);
#1626 = EDGE_LOOP('',(#1627,#1635,#1642,#1643));
#1627 = ORIENTED_EDGE('',*,*,#1628,.F.);
#1628 = EDGE_CURVE('',#1629,#863,#1631,.T.);
#1629 = VERTEX_POINT('',#1630);
#1630 = CARTESIAN_POINT('',(-5.,-80.25,40.));
#1631 = LINE('',#1632,#1633);
#1632 = CARTESIAN_POINT('',(-5.,-80.25,40.));
#1633 = VECTOR('',#1634,1.);
#1634 = DIRECTION('',(1.,-1.6E-16,1.110223024625E-16));
#1635 = ORIENTED_EDGE('',*,*,#1636,.T.);
#1636 = EDGE_CURVE('',#1629,#1629,#1637,.T.);
#1637 = CIRCLE('',#1638,2.25);
#1638 = AXIS2_PLACEMENT_3D('',#1639,#1640,#1641);
#1639 = CARTESIAN_POINT('',(-5.,-78.,40.));
#1640 = DIRECTION('',(-1.,2.2E-16,-1.110223024625E-16));
#1641 = DIRECTION('',(-2.2E-16,-1.,1.110223024625E-16));
#1642 = ORIENTED_EDGE('',*,*,#1628,.T.);
#1643 = ORIENTED_EDGE('',*,*,#862,.T.);
#1644 = CYLINDRICAL_SURFACE('',#1645,2.25);
#1645 = AXIS2_PLACEMENT_3D('',#1646,#1647,#1648);
#1646 = CARTESIAN_POINT('',(-5.,-78.,40.));
#1647 = DIRECTION('',(1.,-2.2E-16,1.110223024625E-16));
#1648 = DIRECTION('',(-2.2E-16,-1.,1.110223024625E-16));
#1649 = ADVANCED_FACE('',(#1650),#1661,.T.);
#1650 = FACE_BOUND('',#1651,.T.);
#1651 = EDGE_LOOP('',(#1652,#1653,#1654,#1660));
#1652 = ORIENTED_EDGE('',*,*,#922,.T.);
#1653 = ORIENTED_EDGE('',*,*,#1000,.T.);
#1654 = ORIENTED_EDGE('',*,*,#1655,.F.);
#1655 = EDGE_CURVE('',#1423,#962,#1656,.T.);
#1656 = LINE('',#1657,#1658);
#1657 = CARTESIAN_POINT('',(0.,0.,0.));
#1658 = VECTOR('',#1659,1.);
#1659 = DIRECTION('',(-1.,2.2E-16,-1.110223024625E-16));
#1660 = ORIENTED_EDGE('',*,*,#1430,.F.);
#1661 = PLANE('',#1662);
#1662 = AXIS2_PLACEMENT_3D('',#1663,#1664,#1665);
#1663 = CARTESIAN_POINT('',(-2.120525977034E-30,-86.,2.864791801178E-14)
  );
#1664 = DIRECTION('',(1.110223024625E-16,-3.310223024625E-16,-1.));
#1665 = DIRECTION('',(2.442490654175E-32,1.,-3.310223024625E-16));
#1666 = ADVANCED_FACE('',(#1667),#1678,.F.);
#1667 = FACE_BOUND('',#1668,.F.);
#1668 = EDGE_LOOP('',(#1669,#1675,#1676,#1677));
#1669 = ORIENTED_EDGE('',*,*,#1670,.T.);
#1670 = EDGE_CURVE('',#1462,#971,#1671,.T.);
#1671 = LINE('',#1672,#1673);
#1672 = CARTESIAN_POINT('',(-4.995334536938E-15,1.665334536938E-15,15.)
  );
#1673 = VECTOR('',#1674,1.);
#1674 = DIRECTION('',(-1.,2.2E-16,-1.110223024625E-16));
#1675 = ORIENTED_EDGE('',*,*,#978,.F.);
#1676 = ORIENTED_EDGE('',*,*,#1655,.F.);
#1677 = ORIENTED_EDGE('',*,*,#1471,.F.);
#1678 = PLANE('',#1679);
#1679 = AXIS2_PLACEMENT_3D('',#1680,#1681,#1682);
#1680 = CARTESIAN_POINT('',(-4.995334536938E-15,1.665334536938E-15,15.)
  );
#1681 = DIRECTION('',(-2.2E-16,-1.,1.110223024625E-16));
#1682 = DIRECTION('',(3.310223024625E-16,-1.110223024625E-16,-1.));
#1683 = ADVANCED_FACE('',(#1684),#1690,.T.);
#1684 = FACE_BOUND('',#1685,.T.);
#1685 = EDGE_LOOP('',(#1686,#1687,#1688,#1689));
#1686 = ORIENTED_EDGE('',*,*,#1670,.T.);
#1687 = ORIENTED_EDGE('',*,*,#1024,.T.);
#1688 = ORIENTED_EDGE('',*,*,#1333,.F.);
#1689 = ORIENTED_EDGE('',*,*,#1488,.T.);
#1690 = CYLINDRICAL_SURFACE('',#1691,5.);
#1691 = AXIS2_PLACEMENT_3D('',#1692,#1693,#1694);
#1692 = CARTESIAN_POINT('',(-4.995334536938E-15,-5.,15.));
#1693 = DIRECTION('',(1.,3.675085818583E-32,3.310223024625E-16));
#1694 = DIRECTION('',(7.282490654175E-32,1.,-3.310223024625E-16));
#1695 = ADVANCED_FACE('',(#1696,#1699),#1702,.T.);
#1696 = FACE_BOUND('',#1697,.T.);
#1697 = EDGE_LOOP('',(#1698));
#1698 = ORIENTED_EDGE('',*,*,#1078,.T.);
#1699 = FACE_BOUND('',#1700,.T.);
#1700 = EDGE_LOOP('',(#1701));
#1701 = ORIENTED_EDGE('',*,*,#1511,.F.);
#1702 = PLANE('',#1703);
#1703 = AXIS2_PLACEMENT_3D('',#1704,#1705,#1706);
#1704 = CARTESIAN_POINT('',(-5.,-10.,10.));
#1705 = DIRECTION('',(-1.,2.2E-16,-1.110223024625E-16));
#1706 = DIRECTION('',(-2.2E-16,-1.,1.110223024625E-16));
#1707 = ADVANCED_FACE('',(#1708,#1711),#1714,.T.);
#1708 = FACE_BOUND('',#1709,.T.);
#1709 = EDGE_LOOP('',(#1710));
#1710 = ORIENTED_EDGE('',*,*,#1538,.T.);
#1711 = FACE_BOUND('',#1712,.T.);
#1712 = EDGE_LOOP('',(#1713));
#1713 = ORIENTED_EDGE('',*,*,#1101,.F.);
#1714 = PLANE('',#1715);
#1715 = AXIS2_PLACEMENT_3D('',#1716,#1717,#1718);
#1716 = CARTESIAN_POINT('',(-20.,-35.5,6.));
#1717 = DIRECTION('',(1.,-2.2E-16,1.110223024625E-16));
#1718 = DIRECTION('',(2.2E-16,1.,-1.110223024625E-16));
#1719 = ADVANCED_FACE('',(#1720,#1723),#1726,.T.);
#1720 = FACE_BOUND('',#1721,.T.);
#1721 = EDGE_LOOP('',(#1722));
#1722 = ORIENTED_EDGE('',*,*,#1563,.T.);
#1723 = FACE_BOUND('',#1724,.T.);
#1724 = EDGE_LOOP('',(#1725));
#1725 = ORIENTED_EDGE('',*,*,#1151,.F.);
#1726 = PLANE('',#1727);
#1727 = AXIS2_PLACEMENT_3D('',#1728,#1729,#1730);
#1728 = CARTESIAN_POINT('',(-20.,-66.5,6.));
#1729 = DIRECTION('',(1.,-2.2E-16,1.110223024625E-16));
#1730 = DIRECTION('',(2.2E-16,1.,-1.110223024625E-16));
#1731 = ADVANCED_FACE('',(#1732,#1735),#1738,.T.);
#1732 = FACE_BOUND('',#1733,.T.);
#1733 = EDGE_LOOP('',(#1734));
#1734 = ORIENTED_EDGE('',*,*,#1178,.T.);
#1735 = FACE_BOUND('',#1736,.T.);
#1736 = EDGE_LOOP('',(#1737));
#1737 = ORIENTED_EDGE('',*,*,#1586,.F.);
#1738 = PLANE('',#1739);
#1739 = AXIS2_PLACEMENT_3D('',#1740,#1741,#1742);
#1740 = CARTESIAN_POINT('',(-5.,-78.,10.));
#1741 = DIRECTION('',(-1.,2.2E-16,-1.110223024625E-16));
#1742 = DIRECTION('',(-2.2E-16,-1.,1.110223024625E-16));
#1743 = ADVANCED_FACE('',(#1744,#1747),#1750,.T.);
#1744 = FACE_BOUND('',#1745,.T.);
#1745 = EDGE_LOOP('',(#1746));
#1746 = ORIENTED_EDGE('',*,*,#1613,.T.);
#1747 = FACE_BOUND('',#1748,.T.);
#1748 = EDGE_LOOP('',(#1749));
#1749 = ORIENTED_EDGE('',*,*,#1201,.F.);
#1750 = PLANE('',#1751);
#1751 = AXIS2_PLACEMENT_3D('',#1752,#1753,#1754);
#1752 = CARTESIAN_POINT('',(-20.,-66.5,37.));
#1753 = DIRECTION('',(1.,-2.2E-16,1.110223024625E-16));
#1754 = DIRECTION('',(2.2E-16,1.,-1.110223024625E-16));
#1755 = ADVANCED_FACE('',(#1756,#1759),#1762,.T.);
#1756 = FACE_BOUND('',#1757,.T.);
#1757 = EDGE_LOOP('',(#1758));
#1758 = ORIENTED_EDGE('',*,*,#1228,.T.);
#1759 = FACE_BOUND('',#1760,.T.);
#1760 = EDGE_LOOP('',(#1761));
#1761 = ORIENTED_EDGE('',*,*,#1636,.F.);
#1762 = PLANE('',#1763);
#1763 = AXIS2_PLACEMENT_3D('',#1764,#1765,#1766);
#1764 = CARTESIAN_POINT('',(-5.,-78.,40.));
#1765 = DIRECTION('',(-1.,2.2E-16,-1.110223024625E-16));
#1766 = DIRECTION('',(-2.2E-16,-1.,1.110223024625E-16));
#1767 = ADVANCED_FACE('',(#1768),#1774,.F.);
#1768 = FACE_BOUND('',#1769,.F.);
#1769 = EDGE_LOOP('',(#1770,#1771,#1772,#1773));
#1770 = ORIENTED_EDGE('',*,*,#1342,.F.);
#1771 = ORIENTED_EDGE('',*,*,#1243,.T.);
#1772 = ORIENTED_EDGE('',*,*,#1276,.T.);
#1773 = ORIENTED_EDGE('',*,*,#1307,.F.);
#1774 = PLANE('',#1775);
#1775 = AXIS2_PLACEMENT_3D('',#1776,#1777,#1778);
#1776 = CARTESIAN_POINT('',(-11.,-20.,50.));
#1777 = DIRECTION('',(0.,1.,-1.110223024625E-16));
#1778 = DIRECTION('',(-1.,-1.721980671901E-31,-1.551022302463E-15));
#1779 = ( GEOMETRIC_REPRESENTATION_CONTEXT(3) 
GLOBAL_UNCERTAINTY_ASSIGNED_CONTEXT((#1783)) 
GLOBAL_UNIT_ASSIGNED_CONTEXT((#1780,#1781,#1782)) REPRESENTATION_CONTEXT
('Context #1','3D Context with UNIT and UNCERTAINTY') );
#1780 = ( LENGTH_UNIT() NAMED_UNIT(*) SI_UNIT(.MILLI.,.METRE.) );
#1781 = ( NAMED_UNIT(*) PLANE_ANGLE_UNIT() SI_UNIT($,.RADIAN.) );
#1782 = ( NAMED_UNIT(*) SI_UNIT($,.STERADIAN.) SOLID_ANGLE_UNIT() );
#1783 = UNCERTAINTY_MEASURE_WITH_UNIT(LENGTH_MEASURE(2.E-06),#1780,
  'distance_accuracy_value','confusion accuracy');
#1784 = PRODUCT_RELATED_PRODUCT_CATEGORY('part',$,(#7));
#1785 = MECHANICAL_DESIGN_GEOMETRIC_PRESENTATION_REPRESENTATION('',(
    #1786),#1779);
#1786 = STYLED_ITEM('color',(#1787),#15);
#1787 = PRESENTATION_STYLE_ASSIGNMENT((#1788,#1794));
#1788 = SURFACE_STYLE_USAGE(.BOTH.,#1789);
#1789 = SURFACE_SIDE_STYLE('',(#1790));
#1790 = SURFACE_STYLE_FILL_AREA(#1791);
#1791 = FILL_AREA_STYLE('',(#1792));
#1792 = FILL_AREA_STYLE_COLOUR('',#1793);
#1793 = COLOUR_RGB('',0.54901964059,0.419607846511,0.129411774038);
#1794 = CURVE_STYLE('',#1795,POSITIVE_LENGTH_MEASURE(0.1),#1796);
#1795 = DRAUGHTING_PRE_DEFINED_CURVE_FONT('continuous');
#1796 = COLOUR_RGB('',0.678431390124,0.709803936702,0.741176476869);
ENDSEC;
END-ISO-10303-21;
