<svg class="svg-icon" style="width: 1em; height: 1em;vertical-align: middle;fill: currentColor;overflow: hidden;" viewBox="0 0 1024 1024" version="1.1" xmlns="http://www.w3.org/2000/svg"><path d="M512 106.5c54.8 0 107.9 10.7 157.8 31.8 48.3 20.4 91.6 49.7 128.9 86.9 37.3 37.3 66.5 80.6 86.9 128.9 21.1 50 31.8 103.1 31.8 157.8s-10.7 107.9-31.8 157.8c-20.4 48.3-49.7 91.6-86.9 128.9-37.3 37.3-80.6 66.5-128.9 86.9-50 21.1-103.1 31.8-157.8 31.8s-107.9-10.7-157.8-31.8c-48.3-20.4-91.6-49.7-128.9-86.9-37.3-37.3-66.5-80.6-86.9-128.9-21.1-50-31.8-103.1-31.8-157.8s10.7-107.9 31.8-157.8c20.4-48.3 49.7-91.6 86.9-128.9 37.3-37.3 80.6-66.5 128.9-86.9 49.9-21.1 103-31.8 157.8-31.8m0-42.5C264.6 64 64 264.6 64 512s200.6 448 448 448 448-200.6 448-448S759.4 64 512 64z"  /><path d="M673.3 703.3H438c-10.1 0-18.3-8.2-18.3-18.3V285c0-6 3-11.7 8-15.1 5-3.4 11.4-4.1 17-1.9L680 361c7 2.8 11.6 9.5 11.6 17v307c0 10.1-8.2 18.3-18.3 18.3z m-217.1-36.6H655V390.4l-198.8-78.6v354.9z"  /><path d="M589.3 702h-67.4c-9.4 0-17-7.6-17-17V573.9c0-9.4 7.6-17 17-17h67.4c9.4 0 17 7.6 17 17V685c0 9.4-7.6 17-17 17z m-50.4-34h33.4v-77h-33.4v77zM513.9 460.5c-8 0-14.5-6.5-14.5-14.5v-24.7c0-8 6.5-14.5 14.5-14.5s14.5 6.5 14.5 14.5V446c0 8-6.5 14.5-14.5 14.5zM597.4 460.5c-8 0-14.5-6.5-14.5-14.5v-24.7c0-8 6.5-14.5 14.5-14.5s14.5 6.5 14.5 14.5V446c0 8-6.5 14.5-14.5 14.5zM513.9 535.5c-8 0-14.5-6.5-14.5-14.5v-24.7c0-8 6.5-14.5 14.5-14.5s14.5 6.5 14.5 14.5V521c0 8-6.5 14.5-14.5 14.5zM597.4 535.5c-8 0-14.5-6.5-14.5-14.5v-24.7c0-8 6.5-14.5 14.5-14.5s14.5 6.5 14.5 14.5V521c0 8-6.5 14.5-14.5 14.5z"  /><path d="M437.9 703.3H295c-10.1 0-18.3-8.2-18.3-18.3V392c0-10.1 8.2-18.3 18.3-18.3h70.4c10.1 0 18.3 8.2 18.3 18.3s-8.2 18.3-18.3 18.3h-52.2v256.5h106.3V392c0-10.1 8.2-18.3 18.3-18.3s18.3 8.2 18.3 18.3v293c0 10.1-8.1 18.3-18.2 18.3z"  /><path d="M745 703.3h-71.8c-10.1 0-18.3-8.2-18.3-18.3V450c0-10.1 8.2-18.3 18.3-18.3H745c10.1 0 18.3 8.2 18.3 18.3v235c0 10.1-8.2 18.3-18.3 18.3z m-53.5-36.6h35.2V468.3h-35.2v198.4z"  /></svg>